<?xml version="1.0" encoding="UTF-8"?>
<svg id="Layer_1" xmlns="http://www.w3.org/2000/svg" version="1.1" viewBox="0 0 358.9 475.04">
  <!-- Generator: Adobe Illustrator 29.7.1, SVG Export Plug-In . SVG Version: 2.1.1 Build 8)  -->
  <defs>
    <style>
      .st0 {
        fill: #f1a96f;
      }

      .st1 {
        fill: #2d2e33;
      }

      .st2 {
        fill: #f5b883;
      }

      .st3 {
        fill: #27282d;
      }

      .st4 {
        fill: #8f4b28;
      }

      .st5 {
        fill: #b0562c;
      }

      .st6 {
        fill: #1a1a21;
      }

      .st7 {
        fill: #151216;
      }

      .st8 {
        fill: #4c5156;
      }

      .st9 {
        fill: #323137;
      }

      .st10 {
        fill: #de672b;
      }

      .st11 {
        fill: #faf0cc;
      }

      .st12 {
        fill: #7d817f;
      }

      .st13 {
        fill: #7e4225;
      }

      .st14 {
        fill: #203440;
      }

      .st15 {
        fill: #41454a;
      }

      .st16 {
        fill: #582c1c;
      }

      .st17 {
        fill: #ba6e38;
      }

      .st18 {
        fill: #f6bf8f;
      }

      .st19 {
        fill: #924d29;
      }

      .st20 {
        fill: #e7cda9;
      }

      .st21 {
        fill: #1f2026;
      }

      .st22 {
        fill: #d5a881;
      }

      .st23 {
        fill: #b68f6f;
      }

      .st24 {
        fill: #60676b;
      }

      .st25 {
        fill: #ba5c2f;
      }

      .st26 {
        fill: #a77c5e;
      }

      .st27 {
        fill: #38383d;
      }

      .st28 {
        fill: #f0dfbc;
      }
    </style>
  </defs>
  <g>
    <path class="st23" d="M157.03,441.92c.06,3.12-.04,6.28,0,9.4.06.6.3.27.45.33l.11.46.11-.46c.51.09,1.05-.05,1.56,0l.11.5.11-.5c.15,0,.3-.02.45,0,.03.77.64.77.67,0,.15.04.3-.03.45,0,.03.97-.17,2.5.22,3.07.03,1.87-.02,3.77,0,5.64h20.08l.22-8.71c1.34-.01,2.68.02,4.02,0,.03.77.64.77.67,0,.15,0,.3,0,.45,0,.52.85,1.89.87,2.45,0h.89c.4.84,2.13.86,2.45,0,.42-1.1.15-4.37.21-5.93.03-.65.23-1.17.23-1.24h.22c.23.85.85.51,1.22.52,10.25.29,21.86,1.36,31.88.47.84-.07,2.21-.51,3.05-.99h.45c.19.81,1.07.83,1.12,0h.22c-.02,1.65-.16,6.28.22,7.17s2.43.81,2.9,0h1.34l.33.51.11-.51h.89c.15.81.97.81,1.12,0h.89c.03.77.64.77.67,0h3.57c.09.8.82.77.89,0h.89c.09.8.82.77.89,0h2.23c.09.75.86.84.89,0,0-2.38,0-4.79,0-7.17h.45l.21,1.2,29.02-1.2c1.24.01,2.65-.4,3.79.51v14.34c-1.81.53-4.66-.94-6.25.51-.11.1-.4-.31-.46.32l-.12,4.81H79.15s-.22-5.64-.22-5.64h-14.95v-14.86h19.19c-.01,1.93-.45,6.06,0,7.17.24.58.49.98.67,0h5.13l.33.51.11-.51h.45c.23.85.85.51,1.22.52,2.3.07,4.57.12,6.81-.52.03,0,.2-.45.53-.54.6-.16,1.3.17,1.92.03v-6.67s2.88.06,2.88.06l.69,7.12h9.82c.3,0,.6.01.89,0l.11.5.11-.5c.67-.04,1.34.03,2.01,0v-7.68h3.57v9.99c.29,2.52-.49,5.23.89,6.4.73.62,1.79.82,2.56.5.2-.08.31-.49.34-.5.09-.03.22-.48.67-.51-.12,1.55.34.99.77,1.02,3.86.35,10.67,1.06,14.3.02.22-.06.52.17.55-.53v-8.71h8.26c.29-2.43.2-4.72.22-7.17l7.49.02.32-.53.22-2.05Z"/>
    <path class="st23" d="M301.85,444.49h12.05v8.2l-4.7.74-.21,5.93h-7.37c.19-4.79.2-10.03.22-14.86Z"/>
    <path class="st28" d="M79.15,97.15l.44,1.28.23,16.65,3.54-.44c.63,2.93.48,5.98.48,9.15h3.35c.19-4.8-.24-10.48-.01-15.17.02-.5.02-.94.24-1.22l.21,16.88-4.23.54v-9.22h-4.02c-.03-.96.22-1.81.2-2.76-.07-5-.24-10.18-.43-15.17v-.51Z"/>
    <path class="st11" d="M181.35,220.1c0,.34.01.69,0,1.02h-7.37s0,6.15,0,6.15l3.88-.02c.27.13.1.79.14,1.05h-4.24s-.13-7.72-.13-7.72l7.72-.48Z"/>
    <path class="st11" d="M237.58,283.11l18.6-.49.59-2.59c-.07.96.2,3.21-.35,3.53l-18.84-.45Z"/>
    <path class="st11" d="M90.97,192.95l.22,9.22c-.13.31-3.17-.2-3.79,0-.13-1.49.35-1.05.78-1.04.98.03,1.79.69,2.78-.01.28-2.75-.61-5.61.01-8.17Z"/>
    <path class="st28" d="M58.62,62.82v8.71c-1-.06-2.02.07-3.03.02-.48-.03-.51-.52-.54-.53l3.35-.51.22-7.69Z"/>
    <polygon class="st11" points="200.76 247.76 200.99 256.99 204.68 256.97 205 257.5 200.76 257.5 200.76 247.76"/>
    <path class="st11" d="M86.29,183.73c.24.02.56-.16.67.51-.59.22-3.45-.29-3.57,0v7.95s-.22-.27-.22-.27c.14-1.31-.14-7.88,0-8.2,1.04.08,2.09-.1,3.13,0Z"/>
    <path class="st20" d="M156.58,428.09c.05,4.34-.02,8.72,0,13.07,0,.87-.14,2.28.23,2.81l-.32.53-7.49-.02c.04-4.26-.03-8.55,0-12.81l-3.57-.51c0-1.7.02-3.42,0-5.13-.01-1.36.16-5.84-.21-6.44-1.5-.73-3.02.1-4.48.8v-8.2l4.31-.49c.15-.1.38-1.16.38-1.3v-15.63h10.38l.33,1.28c.39,10.08.12,20.18.21,30.29,0,.93.24,1.64.24,1.73Z"/>
    <path class="st28" d="M186.26,411.19l-.14.44c-1.32,0-2.34,1.67-3.66.59v8.2s3.99,1.09,3.99,1.09l.25,8.64h6.25c.01.34,0,.68,0,1.02-.97-.28-6.34.61-6.66-.59l-.25-9.15h-4.02v-9.48c1.12-1.66,2.9-.38,4.24-.77Z"/>
    <path class="st11" d="M145.42,426.04c.02,1.7-.01,3.42,0,5.13l3.57.51h-3.79c-.42-.97-.2-4.05-.22-5.64h.45Z"/>
    <path class="st20" d="M147.65,431.68c-.41.83-2.08.87-2.45,0h2.45Z"/>
    <path class="st22" d="M248.97,451.66c-.03.84-.8.75-.89,0h.89Z"/>
    <g>
      <path class="st11" d="M301.63,460.37h-18.74,18.74Z"/>
      <path class="st22" d="M282.66,459.34h-.22v-15.37h.22c.01,4.63-.24,11.03,0,15.37Z"/>
      <path class="st17" d="M190.72,312.31c.22.84,1.13.82,1.34,0,9.59,0,19.19,0,28.79,0l.11.5.11-.5c6.1,0,12.2,0,18.3,0l.11.5.11-.5c7.14,0,14.29,0,21.42,0l.11.5.11-.5c.15,0,.3,0,.45,0l.33.51.11-.51h17.85l.11.5.11-.5c.59,0,1.19,0,1.79,0l.11.5.11-.5h17.18c.03.77.64.77.67,0,.3,0,.6,0,.89,0l.11.5.11-.5c1.41.02,2.83-.01,4.24,0,0,3.24,0,6.5,0,9.74h-143.93v-9.73c9.74-.01,19.49,0,29.23,0Z"/>
      <path class="st16" d="M132.7,342.03l.03,13.26c1.21,1.05,2.48,1.25,3.77,1.6,0,6.48,0,12.99,0,19.47l-7.81.51v74.8c-.72-.02-3.88.39-4.14-.48l-.1-.8v-108.35c2.75.03,5.51-.04,8.26,0Z"/>
      <path class="st16" d="M291.36,451.66c-1.48-.02-2.98.01-4.46,0l.22-109.63h10.93l-.22,23.05h-6.15s-.32.51-.32.51c0,5.11.01,10.25,0,15.37,0,.34,0,.68,0,1.02-.05,23.21.03,46.46,0,69.67Z"/>
      <path class="st4" d="M136.5,376.35c0,.17,0,.34,0,.51v45.08c0,.68,0,1.37,0,2.05l-.22,27.66c-2.52-.06-5.06.08-7.59,0v-74.8s7.81-.51,7.81-.51Z"/>
      <path class="st16" d="M173.54,342.03v10.76s4.24,0,4.24,0c0,4.26,0,8.55,0,12.81-.3,0-.6,0-.89,0-1.42.01-2.91-.52-4.34-.54-.58,0-3.12-.32-3.25.54,0,10.24,0,20.5,0,30.74,0,.34,0,.68,0,1.02-.02,18.09.01,36.21,0,54.3-1.26-.02-2.53.01-3.79,0v-109.63c2.67.03,5.36-.03,8.03,0Z"/>
      <path class="st16" d="M239.82,443.97c-1.48.04-2.98-.03-4.46,0v-101.95h9.15c0,7.51,0,15.04,0,22.54l-.22.51h-4.46s0,78.89,0,78.89Z"/>
      <path class="st13" d="M161.49,312.31v9.73h-40.61c-.05-3.03-.42-6.49-.22-9.74,13.61,0,27.23.02,40.84,0Z"/>
      <path class="st16" d="M161.49,322.05v9.73c-2.43,0-4.88.39-7.24-.02l-33.37.03c-.04-3.23.06-6.51,0-9.74h40.61Z"/>
      <path class="st6" d="M161.04,342.03v21.77c0,.19-.68,2.79-.82,3.35l-11.53-.09c-.94-.71.53-7.02-.48-8.64h-3.46c-.46-5.59.05-10.8,0-16.39h16.29Z"/>
      <path class="st19" d="M244.28,365.08v78.38c-.59-.51-1.22.42-1.56.51-.15.04-.3-.02-.45,0l-.11-.5-.11.5c-.74.09-1.49-.02-2.23,0v-78.9s4.46,0,4.46,0Z"/>
      <path class="st6" d="M144.31,358.93c-.02,4.01.02,8.04,0,12.06,0,3.06,0,6.12,0,9.18,0,4.17.07,8.47-.12,12.57-.06.23-.61,1.03-.67,1.03h-4.35c.2-4.38-.26-9.88-.01-14.11.09-1.54.68-2.99.65-4.61-.02-1.16-.56-3.29-.64-5.11-.17-3.68.25-7.46,0-11.01h5.13Z"/>
      <path class="st19" d="M177.78,365.59c.03,28.68-.02,57.39,0,86.07-2.82-.04-5.66.04-8.48,0,.01-18.09-.02-36.21,0-54.3l.44,26.93.89.26.24,3.55c1.32.19.49-4.55,1.45-4.61l.36,4.05c.89-.72,1.16,1.09,1.23,1.11.31.08.77-.95.98-.29,0,1.25-1.34,2.32-1.69,2.28-.51-.07-.93-2.48-1.67-1.29-.52.83.13,2.56-.09,3.36-.08.31-1.12,1.85-1.24,1.54l.02-6.86-.69-.31v23.57c1.19.33,2.46.02,3.69-.02.46-.02.88.53,1.31.49.89-.07,1.73-1.65,2.81-.47l.02-83.29-.46-1.74c.3,0,.6,0,.89,0Z"/>
      <path class="st5" d="M305.42,322.05c0,3.24,0,6.5,0,9.74-47.97-.03-95.96.03-143.93,0v-.51h143.71s0-9.22,0-9.22h.22Z"/>
      <path class="st11" d="M185.59,348.69l-2.65-.07-.48-6.59h48.65c-.32,33.41.59,66.79.23,100.19-.01.98-.23,1.87-.23,2.27h-.22v-101.44s-47.98-.51-47.98-.51l.25,5.07,2.43.06c.03.33-.03.74,0,1.02Z"/>
      <path class="st21" d="M144.75,432.7c-.5,4.18.25,8.49,0,12.81h-4.35l-.33-.77v-12.04h4.69Z"/>
      <path class="st21" d="M156.36,377.37v7.17l-7.81-.51c.05-2.28-.41-4.55.13-6.69l7.68.03Z"/>
      <path class="st13" d="M132.7,342.03c1.26.02,2.53-.01,3.79,0,0,4.95,0,9.91,0,14.86-1.28-.34-2.55-.55-3.77-1.6l-.03-13.26Z"/>
      <path class="st21" d="M186.26,445h-4.46v-12.3h4.13c.65,0,.1,4.77.1,5.87,0,2.28.17,4.21.23,6.43Z"/>
      <path class="st4" d="M173.54,342.03c1.41.02,2.83-.01,4.24,0,0,3.58,0,7.18,0,10.76h-4.24s0-10.76,0-10.76Z"/>
      <path class="st28" d="M144.98,426.04c-.02-1.87.02-3.77,0-5.64-1.52-.17-3,.04-4.46,1.03l-.23-9.44,4.7-1.31.22-16.91,11.03.48c.69.27.57,23.32.58,25.92s-.02,5.28,0,7.92h-.22c0-.09-.23-.81-.24-1.73-.09-10.11.19-20.21-.21-30.29l-.33-1.28h-10.38v15.63c0,.14-.23,1.2-.38,1.3l-4.31.49v8.2c1.46-.7,2.97-1.53,4.48-.8.37.59.2,5.08.21,6.44h-.45Z"/>
      <path class="st5" d="M297.84,365.08v60.73s.22,25.85.22,25.85c-2.23-.02-4.47.02-6.7,0,.03-23.21-.05-46.46,0-69.67l.22,69.16h6.03v-86.07h.22Z"/>
      <path class="st28" d="M282.22,342.03c.4,1.4.21.96-.33,1.03-3.52.46-7.01,0-10.5-.02-7.02-.06-14.21,1.15-21.21.53-.43-.04-.89.53-.77-1.02,1.39-.27,2.94.13,4.36.02,9.45-.74,18.96-.56,28.44-.53Z"/>
      <path class="st11" d="M282.66,351.76c0,.17,0,.34,0,.51,0,1.53,0,3.08,0,4.61,0,.17,0,.34,0,.51,0,.68,0,1.37,0,2.05,0,.17,0,.34,0,.51,0,.85,0,1.71,0,2.56,0,.17,0,.34,0,.51v26.13c0,.17,0,.34,0,.51,0,3.58,0,7.18,0,10.76,0,.17,0,.34,0,.51,0,1.02,0,2.05,0,3.07,0,.34,0,.68,0,1.02v25.61c0,.51,0,1.02,0,1.54,0,1.53,0,3.08,0,4.61,0,.85,0,1.71,0,2.56,0,1.53,0,3.08,0,4.61h-.22c0-32.51-.18-65.09,0-97.6,0-.87-.14-2.28.23-2.81-.03,2.72,0,5.48,0,8.2Z"/>
      <path class="st5" d="M244.5,364.57c.03,26.46-.02,52.95,0,79.41h-1.79c.34-.09.97-1.02,1.56-.51v-78.38s.22-.51.22-.51Z"/>
      <path class="st22" d="M181.35,460.37h-20.08,20.08Z"/>
      <path class="st5" d="M136.5,421.94v-45.08c0,15.02.01,30.06,0,45.08Z"/>
      <path class="st22" d="M140.51,460.37c-.02.71-.33.47-.55.53-3.64,1.04-10.44.33-14.3-.02-.43-.04-.9.53-.77-1.02.59-.04,1.1.51,1.67.53,4.65.16,9.31-.17,13.96-.02Z"/>
      <path class="st5" d="M136.27,451.66l.22-27.66c0,8.97,0,17.95,0,26.92l-.23.74Z"/>
      <path class="st11" d="M157.03,441.92l-.22,2.05c-.37-.53-.22-1.94-.23-2.81-.02-4.35.05-8.73,0-13.07h.22c.03,4.67.13,9.21.22,13.83Z"/>
      <path class="st22" d="M234.24,451.66c-.47.81-2.52.89-2.9,0h2.9Z"/>
      <path class="st22" d="M189.16,451.66c-.57.87-1.93.85-2.45,0,.82,0,1.64,0,2.45,0Z"/>
      <path class="st22" d="M192.51,451.66c-.33.86-2.05.84-2.45,0h2.45Z"/>
      <path class="st22" d="M161.27,454.73c-.39-.58-.19-2.11-.22-3.07l.2.3c.07.92,0,1.86.02,2.78Z"/>
      <path class="st13" d="M192.06,312.31c-.21.82-1.11.84-1.34,0,.45,0,.89,0,1.34,0Z"/>
      <path class="st20" d="M282.66,439.36c0-.85,0-1.71,0-2.56.35.34.35,2.22,0,2.56Z"/>
      <path class="st22" d="M238.03,451.66c-.15.81-.97.81-1.12,0h1.12Z"/>
      <path class="st22" d="M244.06,451.66c-.07.77-.8.8-.89,0h.89Z"/>
      <path class="st22" d="M245.84,451.66c-.07.77-.8.8-.89,0h.89Z"/>
      <path class="st22" d="M186.26,451.66c-.03.77-.64.77-.67,0,.22,0,.45,0,.67,0Z"/>
      <path class="st22" d="M160.6,451.66c-.03.77-.64.77-.67,0,.22.02.46-.06.67,0Z"/>
      <path class="st20" d="M282.66,432.19c0-.51,0-1.02,0-1.54.27.51.27,1.03,0,1.54Z"/>
      <path class="st22" d="M239.59,451.66c-.03.77-.64.77-.67,0h.67Z"/>
      <path class="st13" d="M300.07,312.31c-.03.77-.64.77-.67,0,.22,0,.45,0,.67,0Z"/>
      <path class="st13" d="M262.13,312.31l-.11.51-.33-.51c.15,0,.3,0,.45,0Z"/>
      <polygon class="st22" points="236.02 451.66 235.91 452.17 235.58 451.66 236.02 451.66"/>
      <path class="st20" d="M282.66,405.04c0-.34,0-.68,0-1.02l.15.41-.15.62Z"/>
      <path class="st13" d="M239.37,312.31c.07,0,.15,0,.22,0l-.11.5-.11-.5Z"/>
      <path class="st13" d="M220.85,312.31c.07,0,.15,0,.22,0l-.11.5-.11-.5Z"/>
      <path class="st20" d="M282.66,366.1v-.51.51Z"/>
      <path class="st20" d="M282.66,363.03c0-.17,0-.34,0-.51v.51Z"/>
      <path class="st20" d="M282.66,359.96c0-.17,0-.34,0-.51v.51Z"/>
      <path class="st20" d="M282.66,357.4c0-.17,0-.34,0-.51v.51Z"/>
      <path class="st20" d="M282.66,389.67c0-.17,0-.34,0-.51v.51Z"/>
      <path class="st22" d="M157.47,451.66c.07.03.15-.01.22,0l-.11.46-.11-.46Z"/>
      <path class="st22" d="M159.26,451.66c.07,0,.15,0,.22,0l-.11.5-.11-.5Z"/>
      <path class="st20" d="M282.66,352.27c0-.17,0-.34,0-.51v.51Z"/>
      <path class="st20" d="M282.66,400.94c0-.17,0-.34,0-.51v.51Z"/>
      <path class="st13" d="M300.96,312.31c.07,0,.15,0,.22,0l-.11.5-.11-.5Z"/>
      <path class="st13" d="M281.99,312.31c.07,0,.15,0,.22,0l-.11.5-.11-.5Z"/>
      <path class="st13" d="M279.98,312.31c.07,0,.15,0,.22,0l-.11.5-.11-.5Z"/>
      <path class="st20" d="M282.66,409.14v-.51.51Z"/>
      <polygon class="st13" points="261.02 312.31 261.24 312.31 261.13 312.81 261.02 312.31"/>
      <path class="st5" d="M242.27,443.97c-.07.01-.15,0-.22,0l.11-.5.11.5Z"/>
      <path class="st26" d="M230.89,444.49c-.05.83-.93.81-1.12,0h1.12Z"/>
      <path class="st4" d="M305.2,322.05v9.22s-143.71,0-143.71,0v-9.22h143.71Z"/>
      <path class="st19" d="M297.61,365.08v86.07h-6.03l-.22-69.16c0-.34,0-.68,0-1.02.39-3.88.25-8.51.23-12.56,0-.87.14-2.28-.23-2.81l.32-.53h5.93Z"/>
      <path class="st5" d="M291.36,380.96c.01-5.11,0-10.25,0-15.37.37.53.22,1.94.23,2.81.02,4.05.16,8.68-.23,12.56Z"/>
      <path class="st4" d="M176.89,365.59l.46,1.74-.02,83.29c-1.08-1.18-1.92.4-2.81.47-.43.03-.85-.51-1.31-.49-1.23.04-2.5.35-3.69.02v-23.57l.69.31-.02,6.86c.12.31,1.16-1.23,1.24-1.54.21-.79-.43-2.53.09-3.36.74-1.19,1.16,1.22,1.67,1.29.35.05,1.68-1.03,1.69-2.28-.21-.67-.67.37-.98.29-.07-.02-.34-1.83-1.23-1.11l-.36-4.05c-.96.07-.13,4.8-1.45,4.61l-.24-3.55-.89-.26-.44-26.93c0-.34,0-.68,0-1.02v-30.74c.12-.86,2.67-.55,3.25-.54,1.43.02,2.92.55,4.34.54Z"/>
      <path class="st19" d="M169.3,396.33c0-10.24,0-20.5,0-30.74v30.74Z"/>
    </g>
    <g>
      <path class="st9" d="M269.94,222.66c.06,20.63.11,41.36,0,61.99-.02,2.81-.35,5.23,0,8.19,1.33.02,2.68-.01,4.01,0,3.19.05,6.45.35,9.6-.51,0,.17,0,.34,0,.51,0,3.24,0,6.5,0,9.74-3.76.15-7.51.58-11.28.53-4.9-.07-9.86-.51-14.83-.54-.65-3.34-.06-6.6-.22-10.25,1.34-.02,2.68.01,4.02,0v-69.16c2.91.19,5.8-.47,8.7-.51Z"/>
      <path class="st11" d="M208.8,247.76c.09,1.45-.24,3.56.22,4.61,0,.34,0,.68,0,1.02-.35.34-.35,2.22,0,2.56v1.02c-.1-.05-.26.2-.22.51-.54-1.24-.07-7.19-.22-9.22h-3.35V75.63l.1,171.65,3.47.48Z"/>
      <path class="st28" d="M256.55,259.55l-1.21-1.06c-14.15.05-28.28-.58-42.42-.5-1.04,0-3.44,1.09-4.12-.49-.04-.32.12-.57.22-.51.19.1.31.51.76.55,15.13,1.28,30.62-1.01,45.78-.06.85-.14.75,1.2.99,2.07Z"/>
      <path class="st28" d="M237.58,283.11v8.71s-4.69,1.02-4.69,1.02c0,.68,0,1.37,0,2.05-.72.48-.52-2.28-.31-2.62,1.3-1.39,2.74-.4,4.12-1.19.64-2.38.26-5.05.43-7.6l.45-.37Z"/>
      <path class="st11" d="M208.8,67.43c.08,2.54-.22,5.28.22,7.68h-3.79s3.35-.5,3.35-.5l.22-7.17Z"/>
      <path class="st8" d="M218.62,84.34c-.12,1.55.34.99.77,1.02,8.07.73,16.77.28,24.77-1.04l58.14.02c0,.17,0,.34,0,.51l-.22,153.69-16.53-.22c-.51-.81,0-2.91,0-4.08-.03-2.74-.19-6.02-.16-8.77.02-2.19.61-5.51-.16-7.43h-3.24c-.11,3.23.14,6.87.01,10.04-.03.71-.23,1.16-.23,1.23v-72.23c-1.41-.03-2.83.04-4.24,0,0-3.07,0-6.16,0-9.22h-32.13c0,3.07,0,6.16,0,9.22-1.34,0-2.68,0-4.02,0-.06,27.14.08,54.32,0,81.46-7.47-.47-14.99.61-22.45.04-.4-.03-.71-.55-.75-.55.17-1.08.21-2.16.23-3.31.9-48.88-.61-99.26-.01-148.33,0-.34.22-1.69.22-2.05Z"/>
      <path class="st27" d="M274.85,166.31h2.68c.04,24.24-.03,48.51,0,72.74-1.1-.75-2.25-.75-3.35,0v-16.39c-1.41.01-2.83-.02-4.24,0,0-3.07,0-6.16,0-9.22h-11.83l-.09,25.13c-.39,1.22-2.33.15-2.96.17-1.8.06-3.61.39-5.43.32l.22-72.75c8.33-.1,16.67,0,24.99,0Z"/>
      <path class="st15" d="M213.71,76.14c.36,1.39-.13,3.05,0,4.27.04.38.42.28.44.66.03.61-.19,3.82.01,4.29h4.02c.2-.44-.44-4.02.45-3.58-.01.85.02,1.71,0,2.56,0,.36-.22,1.7-.22,2.05h-4.24s0,84.53,0,84.53v.51c0,6.48,0,12.99,0,19.47l-.15.41.15.62v8.2c0,2.56,0,5.13,0,7.68v.51c0,.34,0,.68,0,1.02-.27.51-.27,1.02,0,1.54v6.15c-.27.51-.27,1.03,0,1.54,0,1.02,0,2.05,0,3.07l-.15.41.15.62c0,.34,0,.68,0,1.02l-.16.62.16.41c0,.34,0,.68,0,1.02-.38.96-.38,3.66,0,4.61,0,.85,0,1.71,0,2.56-.69-.13-.75-.18-.67,1.53h.67c0,.34,0,.69,0,1.03-1.64-1.32-1.5,5.12-3.13,2.83-.27-.37.17-3.84.29-4.49.25-1.4,1.18-2.1,1.07-3.68-.02-.3-1.9-3.66-2.25-2.85.02,1.9.24,4.45-.01,6.29-.06.43-.39.35-.43.72-.12,1.15.37,4.06-.45,3.75-.15-53.95.11-107.94,0-161.89,1.48-.01,2.98.02,4.46,0Z"/>
      <path class="st12" d="M218.62,75.63c27.89-.02,55.79.01,83.68,0,0,2.9-.01,5.82,0,8.71l-58.14-.02c-8,1.32-16.7,1.78-24.77,1.04-.43-.04-.9.53-.77-1.02.02-.85-.01-1.71,0-2.56.03-1.87-.02-3.76,0-5.64v-.51Z"/>
      <path class="st3" d="M249.63,166.31c.07,0,.15,0,.22,0l-.22,72.75c-.62-.02-1.11-.43-1.65-.46-.72-.04-1.86,1.41-2.6-.39v-67.28s.23-4.61.23-4.61c1.34-.01,2.68.02,4.02,0Z"/>
      <path class="st27" d="M209.24,238.03c.83.31.33-2.6.45-3.75.04-.37.37-.29.43-.72.25-1.84.04-4.39.01-6.29.35-.81,2.23,2.55,2.25,2.85.11,1.58-.83,2.28-1.07,3.68-.12.66-.55,4.12-.29,4.49,1.63,2.29,1.49-4.15,3.13-2.83.02.85-.02,1.72,0,2.56,1.33.09,2.69-.14,4.02,0,.04,0,.36.52.75.55,7.47.57,14.99-.51,22.45-.04,0,2.9,0,5.81,0,8.71h-32.13c0-3.07,0-6.16,0-9.22Z"/>
      <path class="st27" d="M302.08,238.54l.22.51c0,2.66-.13,5.46.18,8.07l-.29,1.16h-20.42c-.13-3.52-.23-6.97-.23-10.53,0-2.56.12-5.91.23-8.43,0-.07.2-.52.23-1.23.13-3.17-.12-6.81-.01-10.04h3.24c.76,1.92.18,5.23.16,7.43-.03,2.75.12,6.02.16,8.77.01,1.17-.5,3.27,0,4.08l16.53.22Z"/>
      <path class="st21" d="M257.22,292.33c.16,3.64-.42,6.9.22,10.25-4.64-.02-9.47.48-14.17.55-.95.01-1.83-.8-2.79-.55v-9.73c5.58.29,11.16-.43,16.74-.51Z"/>
      <path class="st9" d="M249.41,157.6c.12,2.11-.27,4.93.22,6.66,0,.68,0,1.37,0,2.05-1.34.02-2.68-.01-4.02,0l-.22,4.61c0-4.6-.01-9.23,0-13.83,1.33,0,2.8.51,4.02.51Z"/>
      <path class="st21" d="M273.96,292.85c-1.33-.02-2.68.02-4.01,0-.35-2.96-.02-5.38,0-8.19l3.8-.81c.65,1.09-.21,7.09.22,9Z"/>
      <path class="st24" d="M302.3,239.05l-.22-.51.22-153.69c.13,51.38,0,102.82,0,154.2Z"/>
      <path class="st12" d="M277.53,157.09c0,3.07,0,6.15,0,9.22h-.45c.46-2.52.13-5.53.22-8.2h-27.67s0-.51,0-.51c9.29.06,18.54-.76,27.89-.51Z"/>
      <path class="st24" d="M281.77,217.03v-59.94,59.94Z"/>
      <path class="st24" d="M218.62,75.63v.51c-1.63.01-3.28-.02-4.91,0-1.48.02-2.98-.01-4.46,0,.23-.85.85-.51,1.22-.52,2.71-.08,5.44.01,8.15,0Z"/>
      <path class="st28" d="M209.02,252.37c-.46-1.05-.14-3.17-.22-4.61l.23.74c.01,1.29-.02,2.59,0,3.87Z"/>
      <path class="st28" d="M209.02,255.96c-.35-.34-.35-2.22,0-2.56,0,.85,0,1.71,0,2.56Z"/>
      <path class="st20" d="M232.9,303.6l-.13.46c-.17.15-.36.02-.54.05l.67-.51Z"/>
      <path class="st12" d="M218.39,86.39c-.6,49.07.91,99.45.01,148.33-.02,1.15-.06,2.23-.23,3.31-1.33-.14-2.69.1-4.02,0-.02-.85.02-1.72,0-2.56,0-.34,0-.68,0-1.02,0-.51,0-1.03,0-1.54,0-.85,0-1.71,0-2.56,0-1.53,0-3.08,0-4.61,0-.34,0-.68,0-1.02s0-.68,0-1.02,0-.68,0-1.02,0-.68,0-1.02c0-1.02,0-2.05,0-3.07,0-.51,0-1.02,0-1.54v-6.15c0-.51,0-1.02,0-1.54,0-.34,0-.68,0-1.02,0-.17,0-.34,0-.51,0-2.56,0-5.13,0-7.68,0-.17,0-.34,0-.51v-8.71c0-6.48,0-12.99,0-19.47,0-.17,0-.34,0-.51v-84.53s4.24,0,4.24,0Z"/>
      <path class="st24" d="M249.63,158.11h27.67c-.1,2.67.24,5.68-.22,8.2h-.45c-.34-.85-1.43-.86-1.79,0-8.33,0-16.67-.1-24.99,0-.07,0-.15,0-.22,0,0-.68,0-1.37,0-2.05,0-2.07.22-4.13,0-6.15Z"/>
      <path class="st12" d="M276.64,166.31h-1.79c.35-.86,1.44-.85,1.79,0Z"/>
      <path class="st8" d="M218.62,76.14c-.02,1.87.03,3.77,0,5.64-.89-.44-.25,3.14-.45,3.59h-4.02c-.2-.48.02-3.69-.01-4.3-.02-.37-.41-.27-.44-.66-.12-1.22.37-2.88,0-4.27,1.63-.02,3.28.01,4.91,0Z"/>
      <path class="st27" d="M214.15,230.34c-.38-.96-.38-3.66,0-4.61,0,1.53,0,3.08,0,4.61Z"/>
      <path class="st27" d="M214.15,232.91c0,.51,0,1.03,0,1.54h-.67c-.08-1.71-.02-1.67.67-1.54Z"/>
      <path class="st27" d="M214.15,218.56c-.27-.51-.27-1.03,0-1.54,0,.51,0,1.02,0,1.54Z"/>
      <path class="st27" d="M214.15,210.88c-.27-.51-.27-1.02,0-1.54,0,.51,0,1.02,0,1.54Z"/>
      <path class="st27" d="M214.15,224.71l-.16-.41.16-.62c0,.34,0,.68,0,1.02Z"/>
      <path class="st27" d="M214.15,222.66l-.15-.62.15-.41c0,.34,0,.68,0,1.02Z"/>
      <polygon class="st27" points="214.15 191.92 214 191.31 214.15 190.9 214.15 191.92"/>
      <path class="st27" d="M214.15,171.43v-.51c0,.17,0,.34,0,.51Z"/>
      <path class="st27" d="M214.15,200.12v-.51c0,.17,0,.34,0,.51Z"/>
      <path class="st27" d="M214.15,208.32v-.51c0,.17,0,.34,0,.51Z"/>
      <path class="st3" d="M249.63,158.11c.22,2.02,0,4.07,0,6.15-.49-1.73-.11-4.55-.22-6.66.07,0,.15,0,.22,0v.51Z"/>
    </g>
    <g>
      <path class="st7" d="M174.21,10.06c0,2.72,0,5.47,0,8.2-15.02.24-30.06-.32-45.08,0-2.78.06-5.59.22-8.26.51-1.41.16-2.87-.44-4.24.51v8.2l-4.02.51v8.71c-1.25.03-2.52-.08-3.77.06l-.47,8.65-3.76.07c-.47,2.55-.18,5.43-.25,8.13-1.26-.1-2.53.06-3.79,0l-.23,17.93,4.02.51c.01,2.55-.02,5.13,0,7.68-1.35.11-2.67.51-4.02.51,0,2.21.01,4.45,0,6.66-.02,3.58.01,7.18,0,10.76,1.15-.07,2.32.09,3.47,0,.33-.03.65-.51.77-.52,1.26-.08,2.53,0,3.79,0,.34,3.19.2,6.48.22,9.74h4.02c.1,16.72-.04,33.48,0,50.2.01,5.29,0,10.6,0,15.88h3.68c.65-3.08.27-7.66.33-11.27l3.99-.06c.39-.76.27-18.01.26-20.71-.05-9.25-.12-18.98-.23-28.16-.02-1.96.01-3.93,0-5.89h-3.79s-.22,0-.22,0c0-.51,0-1.03,0-1.54-.01-1.26.16-4.84-.21-5.41l-3.81-1.25c-.05-.78-.1-1.22-.45-1.54l.22-10.25c-.96.08-1.94-.11-2.9,0-.15.02-.3-.01-.45,0h-4.46c-.04-2.26-.21-4.64-.22-7.17,1.18-.1,2.39.01,3.57,0,1.56-.02,3.13.01,4.69,0,.03-2.72-.04-5.48,0-8.2l4.02.51c-.04-2.13.06-4.31,0-6.45-.02-.66-.23-1.17-.23-1.24-.05-3.56.21-7.03.22-10.25,1.34-.02,2.68.01,4.02,0v-8.71h4.02c-.18-2.96.16-5.91.22-8.71,0-.17,0-.34,0-.51l3.55-.06.47-8.65c.2-.02.41-.51.45-.51,1.41-.06,2.71.51,4.02.51,13.53.07,27.08-.29,40.61,0,.07,0,.15,0,.22,0,0,.17,0,.34,0,.51,0,2.73,0,5.47,0,8.2h4.91c-.08-1.75.19-3.4.22-5.13.02-1.04.16-3.11-.37-3.52-1.59-.17-3.18-.03-4.77-.07,0-2.9,0-5.81,0-8.71l4.99-.44c.57.43.35,2.92.37,4.02.02,1.27-.16,4.82.21,5.41l2.69.23.23,8.7h3.12v8.2c.96.35,3.32-.7,4.02.51l.22,24.08,2.9.51c.01,1.19-.02,2.4,0,3.59,0,.34,0,.68,0,1.02.02,2.72,0,5.47,0,8.2,0,.51,0,1.02,0,1.54.02,2.55-.04,5.14,0,7.68,0,.17,0,.34,0,.51.01.51-.02,1.03,0,1.54.04.91.16,1.05.22,1.54.05.37-.07,1.04,0,1.5.74.11,1.48,0,2.22.04.16.83.62.41.89.51.14.05.3-.03.45,0,.02.33-.03.73,0,1.02.05.49-.1,1.29.22,1.54.44,23.99-.33,48.69,0,72.75l-3.77.56-.24,10.2h-3.57s0,17.42,0,17.42l-.89.51c-.96-.11-1.94.07-2.9,0-.02,2.26-.34,4.34-.23,6.66-.01.68.02,1.37,0,2.05l-3.99.59c-.08,2.87,0,5.77-.03,8.64,0,.17,0,.34,0,.51l-7.72.48.13,7.72h4.24c.43,2.45-.33,6.64.23,9.7,1.26.29,2.61-.54,3.78.54l.23,9.73,18.3-1.02.22.51v9.74s4.24,0,4.24,0v9.74c1.26.42,2.5-.39,3.69-.55.29-.04.5.54.55.55l.21,17.19,14.74-.29v8.2h4.46l.45,11.79c1.03-.14,2.1.19,3.13,0,.17-.03.37.09.54-.05l.13-.46c0-.17,0-.34,0-.51.13-2.44-.02-5.62,0-8.2,0-.68,0-1.37,0-2.05l4.69-1.02v-8.71s18.84.45,18.84.45c.55-.32.29-2.57.35-3.53.38-5.46,1.07-15.87-.22-20.49-.25-.88-.14-2.22-.99-2.07-15.17-.95-30.65,1.34-45.78.06-.44-.04-.56-.44-.76-.55v-1.02c0-.85,0-1.71,0-2.56,0-.34,0-.68,0-1.02-.02-1.28.02-2.58,0-3.87l-.23-.74-3.47-.48-.1-171.65v-.51h3.79c-.44-2.41-.14-5.14-.22-7.68h.22c10.48,0,20.98.01,31.46,0,.07,0,.15,0,.22,0,20.45-.02,40.92.02,61.37,0h.22v7.69c.14.33,3.36-.21,4.02,0,.07.02.15-.02.22,0v173.67h-4.24v9.22c-7.43.09-14.88-.12-22.32,0-.93.01-5.37-.41-5.71.5-.1.31-.07.69-.1,1.04-.04.45.01,1.04,0,1.54-.4.85-.22,2.82-.22,4.1,0,1.53-.03,3.09,0,4.61,0,.37.22.48.22.51.01.85-.01,1.71,0,2.56,0,.12,0,.29,0,.51.06,3.57-.04,7.19,0,10.76,2.72-.71,6.33.94,8.93,0,.68-.29.43.78.45,1.77.04,2.13,0,4.3,0,6.43-3.15.87-6.41.56-9.6.51-.42-1.91.43-7.92-.22-9l-3.8.81c.11-20.63.06-41.36,0-61.99,1.41-.02,2.83.01,4.24,0v16.39c1.1-.75,2.25-.75,3.35,0-.03-24.24.04-48.51,0-72.74,0-3.07,0-6.15,0-9.22,1.41.04,2.83-.03,4.24,0v72.23c-.12,2.52-.24,5.87-.23,8.43,0,3.55.11,7.01.23,10.53h20.42l.29-1.16c-.31-2.61-.18-5.4-.18-8.07,0-51.39.13-102.82,0-154.2,0-.17,0-.34,0-.51,0-2.9,0-5.82,0-8.71-27.89.02-55.79-.01-83.68,0-2.71,0-5.43-.09-8.15,0-.38.01-.99-.33-1.22.52.11,53.95-.15,107.94,0,161.89,0,3.07,0,6.16,0,9.22h32.13c0-2.9,0-5.81,0-8.71.08-27.14-.06-54.32,0-81.46,1.34,0,2.68,0,4.02,0,0-3.07,0-6.16,0-9.22h32.13c0,3.07,0,6.16,0,9.22-9.35-.25-18.6.57-27.89.51-.07,0-.15,0-.22,0-1.21,0-2.69-.52-4.02-.51-.01,4.6,0,9.23,0,13.83v67.28c.73,1.8,1.87.35,2.59.39.54.03,1.03.44,1.65.46,1.82.07,3.63-.26,5.43-.32.62-.02,2.56,1.05,2.96-.17l.09-25.13h11.83c0,3.07,0,6.16,0,9.22-2.91.04-5.79.7-8.7.51v69.16c-1.34.01-2.68-.02-4.02,0-5.58.08-11.15.8-16.74.51v9.73c.96-.24,1.84.57,2.79.55,4.7-.07,9.53-.58,14.17-.55,4.97.03,9.93.47,14.83.54,3.77.05,7.52-.38,11.28-.53,0-3.24,0-6.5,0-9.74,1.45-.34,3.19-.17,4.69,0l.22,9.22.22.51,21.19.03c.02,1.29.21,2.51.24,3.8.24,8.55.42,25.66,0,33.86-.04.75-.03,1.32-.35,1.77h-8.15c.02,20.31-.03,40.65,0,60.96,0,2.73,0,5.47,0,8.2,0,.68,0,1.37,0,2.05,0,4.09,0,8.2,0,12.3,0,1.02,0,2.05,0,3.07.01,5,.24,10.24.22,15.37,0,.17,0,.34,0,.51-.02,4.83-.03,10.07-.22,14.86-.01.34,0,.69,0,1.02h-18.74c-.21-.19-.2-.59-.22-1.02-.24-4.34.01-10.74,0-15.37,0-1.53,0-3.08,0-4.61.35-.34.35-2.22,0-2.56,0-1.53,0-3.08,0-4.61.27-.51.27-1.03,0-1.54v-25.61l.15-.62-.15-.41c0-1.02,0-2.05,0-3.07v-.51c0-3.58,0-7.18,0-10.76v-27.15c0-.85,0-1.71,0-2.56v-.51c0-.68,0-1.37,0-2.05v-.51c0-1.53,0-3.08,0-4.61v-.51c0-2.72-.03-5.48,0-8.2,0-.07.35-.4.13-1.03l-.57-.5c-9.48-.02-18.99-.21-28.44.53-1.42.11-2.97-.29-4.36-.02-.21.04-.64-.28-.67.3.08,23.55-.09,47.12,0,70.68.04,10.26.27,20.63.23,30.97,0,2.38,0,4.79,0,7.17h-17.63c-.39-.89-.25-5.52-.22-7.17,0-.4.22-1.29.23-2.27.36-33.4-.56-66.78-.23-100.19h-48.65s.48,6.59.48,6.59l2.65.07c.1.92.16,2.1.22,3.07.14,2.23.33,4.37.22,6.66l3.57.51c.54,3.91.02,6.86,0,10.48-.06,8.04.05,16.09.03,24.13l-.69,1.25c-.89-.1-1.79.07-2.68,0-.12,5.01.17,10.41,0,15.37,0,.17.01.35,0,.51s0,.34,0,.51c-1.34.39-3.12-.89-4.24.77v9.48h4.02l.25,9.15c.33,1.2,5.7.3,6.66.59.09,4.1.1,9.24,0,13.32,0,.07-.21.59-.23,1.24-.06,1.56.21,4.83-.21,5.93h-3.35c-.82,0-1.64,0-2.45,0-.15,0-.3,0-.45,0-.22,0-.45,0-.67,0-1.34.02-2.68-.01-4.02,0l-.22,8.71h-20.08c-.02-1.87.03-3.77,0-5.64-.02-.92.05-1.86-.02-2.78l-.2-.3c-.15-.03-.3.04-.45,0-.21-.06-.45.02-.67,0-.15-.02-.3,0-.45,0-.07,0-.15,0-.22,0-.52-.05-1.05.09-1.56,0-.07-.01-.15.03-.22,0-.15-.06-.39.27-.45-.33-.03-3.12.07-6.29,0-9.4-.09-4.62-.2-9.16-.22-13.83-.02-2.64.02-5.31,0-7.92s.1-25.65-.58-25.92l-11.03-.48-.22,16.91-4.7,1.31.23,9.44c1.46-.98,2.94-1.2,4.46-1.03.02,1.87-.02,3.77,0,5.64.02,1.59-.19,4.67.22,5.64.38.87,2.04.83,2.45,0h1.34c-.03,4.26.04,8.55,0,12.81-.03,2.45.06,4.74-.22,7.17h-8.26v8.71c-4.65-.14-9.31.19-13.96.02-.57-.02-1.07-.58-1.67-.53-.45.03-.58.48-.67.51h-2.9c-1.38-1.17-.61-3.89-.89-6.4v-9.99h-3.57v7.68c-.67.03-1.34-.04-2.01,0-.07,0-.15,0-.22,0-.3.01-.6,0-.89,0-3.27.06-6.55-.05-9.82,0l-.69-7.12-2.88-.06v6.67c-.62.14-1.32-.2-1.92-.03-.34.09-.5.53-.53.54h-14.73c-.45-1.11-.01-5.24,0-7.17.02-4.07-.09-8.23,0-12.3.45,0,.89,0,1.34,0,.37,0,.75.05,1.12,0,1.92-.28,3.87-1.06,5.8-1.02v-8.71s1.56-.51,1.56-.51c3.59-.95,7.21-1.18,10.83-1.01l.32-.53c0-2.38,0-4.79,0-7.17v-2.05c0-.85,0-1.71,0-2.56,0-1.02,0-2.05,0-3.07,0-2.75.19-7.58,0-9.99-.05-.58-.08-1.04-.37-1.21l-23.96-.58c-.15-2.95.21-5.8.22-8.71,3.22-.35,6.48-1.27,9.7-1.56l26.68.02c-.23-1.23.48-7.17-.11-7.17h-7.59l-.33-.77v-8.2l-28.33-1.25c-.62,6.25.02,12.71-.01,18.93-1.4.15-2.83-.11-4.24,0-.14-3.12.19-6.15.22-9.22.06-5.24-.21-11.32,0-16.39.11-.06.21-.27.22-.51.04-.63-.03-1.39,0-2.05.53-.16,1.22.02,1.79,0,1.63-.06,3.28.04,4.91,0,.16-5.85.14-11.1,0-16.91-.04-1.58-.25-10.95-.45-11.27-.98.66-2.54.82-3.57.52v-.51c0-.34,0-.68,0-1.02,0-5.13.37-10.22.22-15.37h-8.03c0-2.38.01-4.79,0-7.17,0-.17,0-.34,0-.51-.03-9.43-.05-18.78-.22-28.18l8.46-1.08c.05-16.46.02-32.94.04-49.42,0-.58.06-1.55-.24-1.76v-.51l.22-.51c.06-.17.15-.4.22-.51h3.35s0-11.27,0-11.27l4.03-.22c.31-.49.31-7.46.21-9,.07-.02.15.02.22,0,.63-.19,3.66.31,3.79,0l-.22-9.22c.04-.16.15-.42.22-.51,1.48,0,2.98,0,4.46,0,.06,3.09.05,6.64,0,9.73,0,.17,0,.34,0,.51l-2.2-.44c.03,2.35-1.08,2.44-1.46,4.06-.35,1.48-.31,3.47-.35,5.09-1.41.02-2.83-.02-4.24,0v11.27c-1.41-.62-2.77-.71-4.14.48l.13,68.94.37,1.21,3.65.58v18.44l16.96-.51v-7.43c-.2-.55-1.24-1.28-1.45-1.28h-6.81l-.48-18.37-3.73-1.68-.25-15.3h-3.68c-.99-2.27-.34-4.93-.33-7.41.02-2.84-.25-9.49.04-11.7.31-2.45,2.88-1.28,3.75-.63.54.93.33,15.98.44,18.71l3.92.99c.55,5.21-.05,10.41.29,15.68.72,2.02,2.98.19,4.04.74v7.43c0,.4.38,1.89.56,2.31h3.68c.33,1.7-.36,9.13.37,9.68l19.16-.46.53-.84c.13-2.14-.08-4.34.08-6.47.39-5.03,1.75-1.88,3.18-1.87,1.43,0,3.13-1.04,4.65-.63l.34-.77.25-4.8c.02,1.83-.24,4.34.33,5.64h6.81c0-2.9,0-5.81,0-8.71h8.26c-.09-2.28.12-4.95,0-7.17.09-.79-.31-1.95.33-2.05,1.38-.21,2.96-.02,4.36,0,.07,0,.15,0,.22,0v4.61c0,.17,0,.34,0,.51,0,.34,0,.68,0,1.02.02,1.19-.01,2.4,0,3.59h7.81s0-9.22,0-9.22c-.2-1.36-2.43.05-3.02.05-.48,0-.94-.57-1-.56l-.28-8.07c-.66-1.77-3.36.77-3.96-1.66.06-2.37-.04-4.8,0-7.17-4.94.34-9.92-.45-14.85,0-.43.04-.9-.53-.77,1.02.71,9.94-1.83,6.58-4.69,8.2h-.22c-5.39-1.63-11.19-.74-16.63-1.52-.46-.07-2.12-.39-2.41-.6-.72-.51-.22-6.98-.37-8.64.3.26,2.1-1.16,2.8-1.08s.92.92,1.35,1.06c2.04.66,5.05-.16,7.24.02,3.36.29,8.68,2.09,11.83,1.02.28-.1.6.08.89,0,.19-3.14.09-6.72.45-9.74l15.4.51v9.22h4.24v8.71h4.02v-27.41c-.14-.51-.31-.66-.56-.77-1.14-.48-3.18.09-4.47.02-3.95-.21-7.91-.11-11.93-.02-1.9.04-3.8-.25-5.68.53l-6.37-.53v-7.43c0-.26-.37-.85-.56-.77l-6.58-.51c-.02-2.84.17-5.87-.43-8.49-4.36.28-3.93-.67-3.81-9.96.78.31,1.5-.39,2.23-.51.66-.11,1.34.04,2.01,0,9-.55,18.43-.29,27.45,0,.07,0,.15,0,.22,0,.48.02.94.51,1.44.53,2.19.1,4.42.07,6.61-.25.38-.62,0-7.46-.01-9-.04-3.23.03-6.5,0-9.74l-7.69-.03c-.27.17-.07,1.11-.12,1.56-.14,1.15-.38,2.1-.22,3.59h.45c0,1.36,0,2.73,0,4.09-.15.03-.42.47-.67.51-.07.01-.15-.01-.22,0l-27.22-.51v-9.22s-4.02,0-4.02,0c.02-1.5.14-8.43-.21-9l-8.05.29v8.71h4.02l-.13,9.25,4.14.48c0,.17,0,.34,0,.51,0,.3-.2,1.02-.22,1.77-.04,1.42.19,6.08-.21,6.72-1.15.07-7.01,1.18-7.35-1.13-.24-1.63.27-6.84-.24-7.65-1.4-.71-3.26-.06-4.48-1.5v-7.43c-1.38-1.43-3.79,3.86-4.02-1.02.21,0,.68.54,1.21.53.69-.02,2.28-.52,2.8-1.3v-7.94h-3.79c-.03,2.91-.36,5.76-.22,8.71-2.83,0-5.71.02-8.48,0-.03-1.34-.15-7.53-.43-7.97-1.19-.67-2.37-.68-3.58-.74-.07,0-.15.01-.22,0-.18-3.57.4-8.2-.33-11.27h-3.91v10.47s-.89.8-.89.8c-1.04-.1-2.09.07-3.13,0-.14.32.14,6.89,0,8.2-.01.1-.36.91-.45,1.02-1.81-.87-3.92-.59-5.8-.51-.15,0-.3,0-.45,0-.46-1.06-1.38-.32-2.01-.51v-18.96h3.68c.66-2.25.32-6.24.15-8.93l.18-.29,4.24.51.23-9.22h-3.79c-.07-3.24-.01-6.5-.22-9.73l-4.46-.51v-8.97c-.9-1.05-2.45-1.04-3.57-1.28l-.25-9.66c-.33-.47-3.02.17-3.76-.07-.07-.02-.15.02-.22,0v-16.39h-4.02v-10.25c-.84.44-1.71-.41-2.45-.51-.07,0-.15-.01-.22,0-.24,0-.47-.41-.67-.51-.13-.07-.3.04-.45,0l-.1-7.72c-.25-.84-1.61-.44-2.13-.48l-.11-.51-.33.51c-.15,0-.3-.02-.45,0-.29-.64-.6-.09-.68-1.26-.34-5-.16-10.19-.43-15.13-.02-.33.01-.69,0-1.02l.22-.51c.07.02.15-.02.22,0,.03,0,.07.51.54.53,1.01.05,2.02-.08,3.03-.02v-8.71s.22-.51.22-.51h7.59c.07.1.17.35.22.51v8.71h4.24c-.15,4.78.24,9.73,0,14.34h4.24c.06.18.2.38.22.52v11.27s3.79,0,3.79,0c.19,4.99.36,10.17.43,15.17.01.95-.24,1.8-.2,2.76h4.02v9.22l4.23-.54-.21-16.88.22-.51,3.99-.06c.39-2.97.22-6.1.25-9.17.05-.05.14.03.22,0,.98-.34,2.27.05,3.24.53l.52-.86.26-36.55c.97-.11,1.96.28,2.92-.22.36-.58.17-2.44.21-3.36.14-3.66.05-7.91.22-11.27,0-.18-.02-.38,0-.51l4.69.51c.02-2.89-.03-5.82,0-8.71,0-.17,0-.34,0-.51l3.12-.51v-8.2l4.65-1.12c.29-2.59.12-5.62.48-8.11.02-.17-.03-.39,0-.51h4.02c0-.51,0-1.02,0-1.54l.45-6.66h57.35ZM179.34,36.18v8.71h2.9s.19-7.87.19-7.87l-.33-.77-2.76-.07ZM136.72,106.88h56.01v-9.22h-3.68c-.32-.45-.31-1.02-.35-1.77-.28-5.46.23-12.14.21-17.5,0-2.23-.4-4.94-.2-7.38-.22-.5-2.94.89-3.35-.77v-7.94h-3.68c-.8-1.56.08-5.97-.55-7.44l-3.1-1.34-.02-8.4c-1.07-.44-2.14.68-3.26.3-.51-.17-.78-.94-1.12-1.05-.73-.24-1.78,1.33-2.64.06l-.58-7.74h-31.24v8.2c-.5,0-.95.55-1.45.56-1.13.02-5.47-2.4-5.47,1.75v7.43c-1.19.02-2.38-.02-3.57,0v-8.71h-3.79c0,2.73,0,5.47,0,8.2l-3.78.03-.27,24.75c-.07.66-.27.73-.53.84-.88.37-2.56.23-3.46,0l-.19,16.82c.16.07.44.6.52.6h3.57c.9,2.55-.23,7.18.67,9.73h3.46v65.57h-3.68c-.55,1.38-.5,8.02,0,9.21.7,1.67,2.73.83,3.68,1.03v9.22c1,.57,1.91.01,2.9,0,.3,0,1.06.75,1.67-.03l22.75.06c.46-.18.35-9.79.35-11.3h12.5c.07,10.74-.1,21.53,0,32.27l-3.81-.81c-.54.88.24,7.96-.99,8.5l-23.85.07c-.54.41-.43,5.15-.38,6.36.07,1.7.12,2.71,1.01,2.81,8.55-.49,17.14.57,25.68,0,.27-.02,4.51-1.63,3.67,1l-1.34.52v35.35h4.35c.88,0,.12,5.91.1,7.4-.04,3.25.32,6.73.34,10.04l3.26.26c.12-.2.66-5.18.66-5.66v-12.04h4.02v-8.71h3.24c.12,0,.5-.79.78-.51v-9.22h-3.91c-.48-1.03-.42-3.91-.34-5.4.05-.9.88-4.85.12-4.85h-4.13l.22-9.22c-.53.12-1.17-.22-1.67,0-.47.21-.6,1.16-.95,1.41-1.23.88-2.8.35-4.08.11,0-3.09.28-6.79,0-9.73,2.18-.85,4.23-1.44,6.47-1.02v-8.2l7.43-.49c.15-.1.38-1.16.38-1.3v-7.94h3.24c.06,0,.77-.61.79-.83v-18.12c1.27.83,2.47-.13,3.78,0,.19-1.86-.2-3.75-.23-5.4-.09-4.68,0-9.77,0-14.58.01-3.18.2-6.29.22-9.22.08-9.22.29-18.44.22-27.66,0-.17,0-.34,0-.51,0-.68.01-1.37,0-2.05-.03-2.28.06-4.4-.23-6.66h-.44s-55.79,0-55.79,0c.3-2.27.91-4.77,2.09-3.71l.47-.9.37-5.05.86-.07ZM185.59,44.89h-3.12v9.22h3.12v-9.22ZM59.06,72.04v14.09c.87,1.84,2.54.3,3.51.35.27.02.34.19.5.67v8.45l3.92,1.5.08,9.54,4.02.76c.27,5.67-.08,11.16.01,16.88h3.68c.12,0,.5.79.78.51v7.94c0,2.31,1.05,1.3,1.45,1.39.78.17,1.54.69,2.34.4v9.22h3.57l-.24-7.95.46-11.01h-3.68l-.33-.77v-8.45h-4.46l-.23-14.11.23-3.82h-4.02l.22-11.27-4.24.51c.32-1.86.03-14.89-.26-15.29l-7.33.44ZM95.21,115.08c-.59-.03-3.68-.25-3.81.83-.1,12.56.21,25.06.24,37.6,0,3.24,0,6.5,0,9.74.79-.4,1.61.45,2.32.46.35,0,.77-.46,1.25-.46.07,0,.15,0,.22,0v9.74c1.92-.16,3.87-.18,5.8,0,.6.05,2.83,1.41,3.25.03.21-3.4.05-6.87.1-10.28h3.79c0-2.55-.01-5.13,0-7.68,0-.85,0-1.71,0-2.56.03-12.28.04-24.6,0-36.89,0-2.9,0-5.82,0-8.71-1.34,0-2.68.02-4.02,0-3.05-.04-6.1.03-9.15,0v8.2ZM86.51,163.74l-3.57.52c.11,1.71-.64,7.48-.02,8.48l3.81.23-.22-9.23ZM112.4,172.97h-4.02v9.73h4.02v-9.73ZM82.94,173.99h-3.46c-.07,0-.31-.71-.56-.51-.14.73.22,1.52.22,1.79v7.94h3.68c.71,0-.16-7.94.11-9.22ZM188.27,258.01c-1.58.31-3.4-.66-4.91.51-.44.04-.9-.03-1.34,0v7.69c-.62-.13-1.48.87-2.01,1.02-.69.2-1.52-.15-2.23,0v17.42c2.45-.11,4.92.15,7.36,0,1.12,1.17,2.59.21,3.79.51.19-.43-.29-7.87.22-9.22.12,0,.44.54.78.54.98,0,2.16-1.03,3.24-.54,0,3.07,0,6.16,0,9.22,1.34.01,2.68-.03,4.02,0,1.19.02,2.39-.08,3.57,0s2.51.94,3.79.51c.16-.36-.19-9.1,0-9.74.03-.1.4.42.47-.73.07-1.24.09-3.99-.24-4.91,0-1.19,0-2.4,0-3.59h-4.02c-.02-.84-.22-1.45-.22-1.53-.06-2.46.05-4.96,0-7.43l-.22-.26c-3.57.55-7.54-.73-11.06-.02-.43.09-.75.47-.99.53ZM165.51,285.16v-8.2c-.14-.04-.45.68-.45.77v7.43h.45ZM75.58,303.6h4.8l.33-.77v-8.2c0-.38-.93-1.06-1.07-2.14-.22-1.68.24-6.84-.25-7.62-.47-.67-3.43.4-3.55.87l-.25,17.86ZM165.06,292.85h-20.98v10.25h20.98v-10.25ZM223.97,292.85h-54.45l-.22,10.25,54.45-.51v-8.45c0-.16.31-.73.22-1.28ZM120.88,322.05c.06,3.23-.04,6.51,0,9.74l33.37-.03c2.36.41,4.82.02,7.24.02,47.97.03,95.96-.03,143.93,0,0-3.24,0-6.5,0-9.74s0-6.5,0-9.74c-1.41-.01-2.83.02-4.24,0-.07,0-.15,0-.22,0-.3,0-.6,0-.89,0-.22,0-.45,0-.67,0h-17.18c-.07,0-.15,0-.22,0-.59,0-1.19,0-1.79,0-.07,0-.15,0-.22,0h-17.85c-.15,0-.3,0-.45,0s-.3,0-.45,0h-.22c-7.14,0-14.29,0-21.42,0-.07,0-.15,0-.22,0-6.1,0-12.2,0-18.3,0-.07,0-.15,0-.22,0-9.59,0-19.19,0-28.79,0-.45,0-.89,0-1.34,0-9.74,0-19.49-.01-29.23,0-13.61.02-27.23,0-40.84,0-.19,3.25.17,6.71.22,9.74ZM93.65,319.48c-1.46-.07-4.42-.54-5.69,0-.25.11-.45.18-.53.84-.03,6.98-.07,13.97-.04,20.95,0,1.48.25,2.9.25,4.59,0,3.88-.74,8.97.1,12.55h20.53c1.09,0,.05,7.26.72,8.21l11.68.29c.6-.95-.03-6.53-.03-8.23,0-3.14.65-14.16.04-15.94s-3.31-.17-4.25.29c-.47-.78.56-11.47.45-13.56l-.45-9.77c-2.97-.34-5.97-.32-8.94-.22-1.13.04-2.52.51-3.46.51h-7.81c-.69,0-1.78-.48-2.57-.51ZM128.69,451.66c2.52.08,5.06-.06,7.59,0l.23-.74c0-8.97-.01-17.96,0-26.92,0-.68,0-1.37,0-2.05.01-15.02,0-30.06,0-45.08,0-.17,0-.34,0-.51,0-6.48,0-12.99,0-19.47,0-4.95,0-9.91,0-14.86-1.26-.01-2.53.02-3.79,0-2.75-.04-5.51.03-8.26,0v108.35s.1.8.1.8c.26.87,3.42.46,4.14.48ZM161.04,342.03h-16.29c.05,5.59-.46,10.81,0,16.39h3.46c1.01,1.61-.46,7.92.48,8.64l11.53.09c.14-.56.82-3.16.82-3.35v-21.77ZM173.54,342.03c-2.67-.03-5.36.03-8.03,0v109.63c1.26.01,2.53-.02,3.79,0,2.82.05,5.66-.04,8.48,0-.03-28.68.03-57.39,0-86.07,0-4.26,0-8.55,0-12.81,0-3.58,0-7.18,0-10.76-1.41,0-2.83.02-4.24,0ZM244.5,364.57c0-7.51,0-15.04,0-22.54h-9.15v101.95c1.48-.03,2.98.04,4.46,0,.74-.02,1.5.09,2.23,0,.07,0,.15.01.22,0,.15-.02.3.04.45,0h1.79c-.03-26.46.03-52.95,0-79.41ZM297.84,365.08l.22-23.05h-10.93l-.22,109.63c1.48,0,2.98-.02,4.46,0,2.23.03,4.47-.02,6.7,0l-.24-25.85v-60.73ZM144.31,358.93h-5.13c.26,3.54-.16,7.33,0,11.01.08,1.82.62,3.95.64,5.11.03,1.62-.56,3.07-.65,4.61-.25,4.23.21,9.73.01,14.11h4.35c.06,0,.61-.79.67-1.03.19-4.1.13-8.4.12-12.57,0-3.06,0-6.12,0-9.18.01-4.02-.03-8.05,0-12.06ZM156.36,377.37l-7.68-.03c-.54,2.15-.08,4.41-.13,6.69l7.81.51v-7.17ZM116.41,402.99c-2.63-.86-5.28-.45-7.9.45-.73,5.93.04,11.95-.13,17.99l8.03-.51v-17.93ZM112.62,431.68l-8.7,1.53c.03,3.52.24,7.04-.23,10.5,2.97.8,5.97-.28,8.93-.76v-11.27ZM96.33,432.7l-4.69.51v10.76h4.35l.33-.77v-10.5ZM144.75,432.7h-4.69v12.04l.33.77h4.35c.25-4.32-.5-8.63,0-12.81ZM186.26,445c-.06-2.22-.24-4.15-.23-6.43,0-1.1.55-5.87-.1-5.87h-4.13v12.3h4.46Z"/>
      <path class="st28" d="M79.15,224.2c.29.21.24,1.18.24,1.76-.02,16.47,0,32.95-.04,49.42l-8.46,1.08c.07-.45.17-1.45.37-1.55l7.66.02.22-50.72Z"/>
      <path class="st28" d="M71.11,312.31h8.03c.15,5.15-.23,10.24-.22,15.37l-.22.76.22.26v.51c-.15-.04-.46.23-.45-.26l.23-15.62c-1.01-.36-7.22.52-7.54-.12-.11-.21-.01-.84-.04-.9Z"/>
      <path class="st11" d="M71.11,304.63l-.22.26.22.26c.01,2.38,0,4.79,0,7.17-.04-.08-.53.29-.47-.73v-33.9c-.07-.56.2-.98.24-1.23.17,9.4.19,18.74.22,28.18Z"/>
      <path class="st11" d="M82.94,339.98c.14,5.81.16,11.06,0,16.91-1.63.04-3.28-.06-4.91,0-.11-1.62.28-.97.71-.88,1.33.28,2.63.56,3.97.37.02-4.52-.03-9.06,0-13.59,0-.87-.14-2.28.23-2.81Z"/>
      <path class="st11" d="M82.94,211.39v-.51c.54-1.23,3.14-.15,4.02-.51l.22-8.2c.1,1.54.1,8.51-.21,9l-4.03.22Z"/>
      <path class="st28" d="M82.94,211.39v11.27s-3.35,0-3.35,0c1.03-1.52,1.96-.97,3.13-1.02.17-2.18-.32-9.51.22-10.76v.51Z"/>
      <path class="st11" d="M76.25,356.88c-.03.66.04,1.42,0,2.05-.1.05-.21.28-.22.51-.21,5.08.06,11.15,0,16.39l-.23-18.65c-.03-.56.29-.26.45-.31Z"/>
      <path class="st22" d="M104.14,408.62c-.37-.52-.36-2.59,0-3.07,0,1.02,0,2.05,0,3.07Z"/>
      <path class="st22" d="M104.14,413.24c0-.54,0-1.47,0-2.05v2.05Z"/>
      <path class="st6" d="M95.66,202.68c-.05,2.69-.42,5.79-.22,8.71-1.26.01-2.53-.02-3.79,0-.24,9.53-.31,23.61,0,33.06.04,1.15.2,2.18.23,3.31h3.79v9.73c1.62-.82,3.07.46,4.69.51l.04,9.12c.89,1.1,3.48-.24,3.87,1.64.08.41-.16,7.4-.13,8.98.04,2.21.41,4.53.23,6.89,1.32-.99,2.47.24,3.78-.54l.28-7.56,4.2-1.12v8.97l.37.69c.86-.32,1.87.68,2.64.62,2.17-.17,4.49.07,6.7-.13.73-.07,2.06-.28,2.57-1.18v-7.94c2.45-.99,4.9.87,7.36.51.03.37.34,1.12.45,1.54.02.37.21.93.22,1.54l-.45.32v3.27s.45,0,.45,0c.02,1.36-.01,2.74,0,4.1l-.25,4.8-.34.77c-1.53-.41-3.22.63-4.65.63-1.43,0-2.79-3.16-3.18,1.87-.17,2.13.04,4.33-.08,6.47l-.53.84-19.16.46c-.73-.55-.04-7.98-.37-9.68h-3.68c-.18-.41-.56-1.91-.56-2.31v-7.43c-1.06-.55-3.32,1.28-4.04-.74-.34-5.28.26-10.48-.29-15.68l-3.92-.99c-.11-2.73.1-17.78-.44-18.71-.87-.66-3.44-1.83-3.75.63-.28,2.21-.02,8.86-.04,11.7-.02,2.47-.66,5.14.33,7.41h3.68l.25,15.3,3.73,1.68.48,18.37h6.81c.21,0,1.25.73,1.45,1.28v7.43l-16.96.51v-18.44l-3.65-.58-.37-1.21-.13-68.94c1.37-1.19,2.73-1.09,4.14-.48v-11.27c1.41-.02,2.83.02,4.24,0,.04-1.62,0-3.61.35-5.09.39-1.62,1.5-1.71,1.46-4.06l2.2.44Z"/>
      <path class="st1" d="M95.66,202.17l8.27.22.43,19.24h3.79l.43,34.61c.71,1.14,2.9-.44,3.7-.3.43.07.52,1,.55,1.03.14,1.66-.35,8.12.37,8.64.3.21,1.95.54,2.41.6,5.45.78,11.25-.12,16.63,1.52.05,2.54-.07,5.15,0,7.68.01.49-.04,1.11,0,1.54-2.47.36-4.92-1.51-7.36-.51v7.94c-.5.9-1.84,1.11-2.57,1.18-2.21.2-4.53-.04-6.7.13-.76.06-1.77-.94-2.64-.62l-.37-.69v-8.97l-4.2,1.12-.28,7.56c-1.31.78-2.46-.45-3.78.54.18-2.37-.19-4.68-.23-6.89-.03-1.58.22-8.58.13-8.98-.39-1.88-2.99-.54-3.87-1.64l-.04-9.12c-1.62-.06-3.07-1.33-4.69-.51v-9.73h-3.79c-.03-1.13-.2-2.16-.23-3.31-.3-9.45-.23-23.54,0-33.06,1.26-.02,2.53.01,3.79,0-.2-2.92.17-6.02.22-8.71,0-.17,0-.34,0-.51Z"/>
      <path class="st6" d="M104.14,192.43c.22,4.88,2.63-.4,4.02,1.02v7.43c1.22,1.45,3.08.79,4.48,1.5.51.81,0,6.02.24,7.65.34,2.31,6.19,1.19,7.35,1.13.4-.64.16-5.3.21-6.72.02-.75.22-1.47.22-1.77,1.15,1.32,1.82-.79,2.8-.57.47.11.14,1.98,1.44.06,0,.17,0,.34,0,.51,0,2.04,0,4.1,0,6.15-.69-.7-1.29-.41-1.98.07l-.03,1.98c-.73.12-1.45.82-2.23.51-.12,9.3-.55,10.25,3.81,9.96.6,2.62.41,5.65.43,8.49l6.58.51c.19-.08.56.52.56.77v7.43l6.37.53c1.88-.79,3.78-.49,5.68-.53-.34,1.63-.12,2.3.45,3.34l-.22,1.03c-2.23.87-4.26,5-6.57,3.38-.45.35-.28,1.35-.35,1.98-.36,3.02-.25,6.6-.45,9.74-.29.07-.61-.1-.89,0,.16-3.25.35-6.39.89-9.47-.17-2.14-3.92.16-4.6.19-1.18.06-3.73-2.4-4.38,1.21-.31,1.73-.1,4.06-.75,5.55l-2.76-1.58c-.13-1.08.49-3.15.01-3.86-.59-.88-2.75-.81-2.13,2.32.29,1.43,1.77,2.65,1.9,4.62-2.19-.19-5.2.64-7.24-.02-.43-.14-.65-.98-1.35-1.06s-2.49,1.34-2.8,1.08c-.04-.03-.13-.96-.55-1.03-.8-.14-2.99,1.43-3.7.3l-.43-34.61h-3.79l-.43-19.24-8.27-.22c.05-3.09.06-6.65,0-9.73,2.77.02,5.65,0,8.48,0ZM122.44,204.73c-.65-.31-.35.48-.51,1.12-.95,3.83.8,2.06.51-1.12ZM126.9,248.79h-.44v1.53h.44v-1.53Z"/>
      <path class="st6" d="M93.65,319.48c-.32,1.96.16,3.7-.05,5.79-.19,1.89-1.39,3.25-1.03,6.14s2.65.16,2.99,1.37c.54,1.94-.64,6.83.09,9.02l4.15-.78.55-9.76c2.41-.31,4.78.85,7.13-.53v-11.25c2.98-.09,5.98-.12,8.95.22l.45,9.77c.11,2.09-.92,12.78-.45,13.56.94-.46,3.61-2.15,4.25-.29s-.04,12.8-.04,15.94c0,1.7.63,7.28.03,8.23l-11.68-.29c-.67-.95.37-8.21-.72-8.21h-20.53c-.84-3.58-.1-8.67-.1-12.55,0-1.69-.24-3.11-.25-4.59-.03-6.98.01-13.97.04-20.95.07-.66.27-.73.53-.84,1.27-.54,4.23-.07,5.69,0Z"/>
      <path class="st21" d="M165.06,212.93c.03,2.7-.17,5.58.25,8.14.26.37,1.35-.29,1.76-.45.28,2.93,0,6.63,0,9.73,1.28.24,2.85.76,4.08-.11.35-.25.48-1.2.95-1.41.5-.23,1.14.11,1.67,0l-.22,9.22h4.13c.76,0-.07,3.95-.12,4.85-.08,1.49-.14,4.36.34,5.4h3.91v9.22c-.28-.28-.66.51-.78.51h-3.24v8.71h-4.02v12.04c0,.48-.53,5.46-.66,5.66l-3.26-.26c-.01-3.31-.38-6.79-.34-10.04.02-1.49.78-7.4-.1-7.4h-4.35v-35.35l1.34-.52c.84-2.62-3.4-1.02-3.67-1-8.55.57-17.13-.49-25.68,0-.89-.1-.93-1.11-1.01-2.81-.05-1.21-.16-5.96.38-6.36l23.85-.07c1.23-.53.45-7.62.99-8.5l3.81.81Z"/>
      <path class="st14" d="M223.97,292.85c.08.55-.22,1.12-.22,1.28v8.45l-54.45.51.22-10.25h54.45Z"/>
      <path class="st3" d="M80.04,385.06c.03-6.22-.61-12.68.01-18.93l28.33,1.25v8.2l.33.77h7.59c.59,0-.12,5.95.11,7.17l-26.68-.02c-3.22.29-6.48,1.21-9.7,1.56Z"/>
      <path class="st21" d="M144.08,238.54c4.02-.08,7.98-.18,11.93.02,1.29.07,3.33-.5,4.47-.02.25.11.42.26.56.77v27.41h-4.02v-8.71h-4.24v-9.22l-15.4-.51c.08-.64-.1-1.63.35-1.98,2.31,1.62,4.34-2.51,6.57-3.38l.22-1.03c-.57-1.04-.79-1.7-.45-3.34Z"/>
      <rect class="st14" x="144.08" y="292.85" width="20.98" height="10.25"/>
      <path class="st3" d="M107.49,319.48v11.25c-2.36,1.39-4.73.22-7.14.53l-.55,9.76-4.15.78c-.73-2.19.46-7.08-.09-9.02-.34-1.21-2.61,1.61-2.99-1.37s.84-4.26,1.03-6.14c.21-2.09-.27-3.83.05-5.79.79.04,1.87.51,2.57.51h7.81c.94,0,2.33-.48,3.46-.51Z"/>
      <path class="st8" d="M152.56,207.29v.51c0,1.02,0,2.05,0,3.07-.07,0-.15,0-.22,0l-27.45-.51v-1.54c0-2.04,0-4.1,0-6.15l26.47.04c.28.31.69-.54.75-.55.07-.01.15.01.22,0,.11,1.72.18,3.39.22,5.12Z"/>
      <path class="st9" d="M116.41,402.99v17.93l-8.03.51c.17-6.04-.6-12.06.13-17.99,2.62-.91,5.27-1.32,7.9-.45Z"/>
      <path class="st21" d="M136.05,258.01c-3.14,1.06-8.47-.74-11.83-1.02-.12-1.97-1.61-3.19-1.9-4.62-.62-3.13,1.54-3.2,2.13-2.32.48.71-.14,2.78-.01,3.86l2.76,1.58c.65-1.49.44-3.82.75-5.55.65-3.6,3.2-1.15,4.38-1.21.68-.03,4.43-2.33,4.6-.19-.54,3.07-.73,6.22-.89,9.47Z"/>
      <path class="st9" d="M112.62,431.68v11.27c-2.96.48-5.96,1.57-8.93.76.47-3.45.26-6.98.23-10.5l8.7-1.53Z"/>
      <path class="st18" d="M188.27,258.01s-.21.45-.53.54c-.66.2-1.46-.19-2.14-.03v7.68l2.9.51c-3.03.17-3.34-.95-3.12,7.17l-.45.76.23-7.42-3.25.48-.32,16.43c-1.19-.02-2.38.02-3.57,0v-15.88l2.45-.52-.45-.51c.53-.15,1.38-1.15,2.01-1.02l.22.51v-7.69s2.9,0,2.9,0c-.21-.93-1.37-.55-1.78-.51,1.51-1.17,3.33-.2,4.91-.51Z"/>
      <path class="st0" d="M181.57,284.14l.32-16.43,3.25-.48-.23,7.42.45-.76c.02.68-.02,1.37,0,2.05.89.07,1.79-.11,2.68,0,.37.04.75-.01,1.12,0-.51,1.35-.03,8.79-.22,9.22-1.2-.31-2.68.65-3.79-.51.28-.02,1.13.42,1.11-.51-1.56-.03-3.13.02-4.69,0Z"/>
      <path class="st6" d="M75.58,303.6l.25-17.86c.13-.47,3.09-1.54,3.55-.87.49.78.03,5.94.25,7.62.14,1.08,1.07,1.76,1.07,2.14v8.2l-.33.77h-4.8Z"/>
      <path class="st6" d="M160.6,202.17c.02,1.54.4,8.38.01,9-2.19.32-4.41.35-6.61.25-.5-.02-.97-.52-1.44-.53,0-1.02,0-2.05,0-3.07,0-.19,0-.23,0-.51-.05-1.74-.12-3.41-.22-5.12.25-.04.52-.48.67-.51,1.59-.31,3.12.48,4.57.51.88.02,2.06-1.39,3.01,0Z"/>
      <path class="st1" d="M152.79,193.97c.05-.45-.15-1.4.12-1.56l7.69.03c.03,3.23-.04,6.5,0,9.74-.96-1.39-2.13.02-3.01,0-1.45-.04-2.98-.82-4.57-.51,0-1.36,0-2.73,0-4.1,0-1.12.17-2.89-.22-3.59Z"/>
      <path class="st22" d="M200.32,257.5l-7.14,1.02c.19,2.87.02,5.41,0,8.2-1.41.04-2.83-.06-4.24,0-.15,0-.3,0-.45,0l-2.9-.51v-7.68c.68-.16,1.48.23,2.14.03.32-.1.51-.53.53-.54.24-.06.56-.45.99-.53,3.52-.71,7.49.58,11.06.02Z"/>
      <path class="st0" d="M200.76,266.72c0,.17,0,.34,0,.51.04,2.71,0,5.48,0,8.2,1.28.03,2.52.36,3.79.51-.19.64.16,9.37,0,9.74-1.28.42-2.58-.43-3.79-.51,0-3.24,0-6.5,0-9.73-1.35-.03-2.55.42-3.79.51-.6.04-1.12-.34-1.64-.32-.54.02-1.19.71-1.62.77-.1.01-.11-1.38-.54-.96,0-2.89-.02-5.82,0-8.71l.23,7.68h.22s0-7.68,0-7.68h6.69l.22-1.54c0,.08.21.7.22,1.54Z"/>
      <polygon class="st9" points="96.33 432.7 96.33 443.21 95.99 443.97 91.64 443.97 91.64 433.22 96.33 432.7"/>
      <path class="st21" d="M120.88,192.43h4.02s0,9.22,0,9.22c0,.17,0,.34,0,.51-1.3,1.92-.97.05-1.44-.06-.98-.22-1.65,1.89-2.8.57,0-.17,0-.34,0-.51.09-3.15.18-6.68.22-9.73Z"/>
      <path class="st19" d="M193.18,266.72c-.02,2.89,0,5.82,0,8.71,0,.17,0,.34,0,.51-1.08-.5-2.26.54-3.24.54-.34,0-.66-.54-.78-.54-.37-.01-.75.04-1.12,0l.91-.8v-8.42c1.4-.06,2.82.04,4.23,0Z"/>
      <path class="st5" d="M200.76,275.43c0,3.24,0,6.5,0,9.73-1.18-.08-2.38.02-3.57,0l-.22-9.22c1.24-.09,2.44-.54,3.79-.51Z"/>
      <path class="st2" d="M193.18,275.43c.44-.41.45.98.54.96.43-.06,1.08-.75,1.62-.77s1.04.36,1.64.32l.22,9.22c-1.34-.02-2.68.02-4.02,0,0-3.07.01-6.16,0-9.22,0-.17,0-.34,0-.51Z"/>
      <path class="st18" d="M200.76,267.23h3.79s0,6.15,0,6.15c.41-.09.22-2.36.22-3.07.33.92.31,3.66.24,4.91-.07,1.15-.44.63-.47.73-1.28-.15-2.51-.48-3.79-.51,0-2.72.04-5.48,0-8.2Z"/>
      <path class="st24" d="M152.12,202.17c-.06,0-.48.86-.75.55l-26.47-.04c0-.17,0-.34,0-.51s0-.34,0-.51l27.22.51Z"/>
      <path class="st24" d="M152.34,210.88c-9.02-.29-18.44-.55-27.45,0v-.51l27.45.51Z"/>
      <path class="st20" d="M180.01,267.23l.45.51-2.45.52v15.88c1.19.02,2.38-.02,3.57,0,1.56.03,3.13-.02,4.69,0,.01.92-.83.49-1.11.51-2.45.15-4.92-.11-7.36,0v-17.42c.71-.15,1.54.2,2.23,0Z"/>
      <path class="st28" d="M200.54,265.18l-.22,1.54v-8.2s-7.14,0-7.14,0l7.14-1.02.22.26c.05,2.47-.06,4.97,0,7.43Z"/>
      <path class="st22" d="M113.73,451.66h-9.82c3.27-.05,6.55.06,9.82,0Z"/>
      <path class="st21" d="M124.89,208.83v2.05c-.66.04-1.35-.11-2.01,0l.03-1.98c.69-.48,1.3-.76,1.98-.07Z"/>
      <path class="st22" d="M97.89,451.66c-2.24.64-4.51.59-6.81.52-.38-.01-.99.33-1.22-.52h8.03Z"/>
      <path class="st20" d="M165.51,285.16h-.45v-7.43c0-.09.3-.81.45-.77v8.2Z"/>
      <path class="st28" d="M200.76,266.72h4.02c0,1.19,0,2.39,0,3.59,0,.72.19,2.98-.22,3.07v-6.15s-3.8,0-3.8,0c0-.17,0-.34,0-.51Z"/>
      <path class="st28" d="M183.36,258.52c.42-.04,1.58-.43,1.78.51h-2.9s0,7.69,0,7.69l-.22-.51v-7.69c.44-.03.89.04,1.34,0Z"/>
      <path class="st6" d="M153.01,197.56h-.45c-.16-1.49.08-2.43.22-3.59.39.7.22,2.46.22,3.59Z"/>
      <path class="st22" d="M124.22,460.37s-.13.41-.34.5c-.77.32-1.83.12-2.56-.5h2.9Z"/>
      <path class="st22" d="M83.83,451.66c-.18.98-.43.58-.67,0h.67Z"/>
      <polygon class="st22" points="89.41 451.66 89.3 452.17 88.96 451.66 89.41 451.66"/>
      <path class="st20" d="M71.11,305.14l-.22-.26.22-.26c0,.17,0,.34,0,.51Z"/>
      <path class="st22" d="M114.63,451.66c.07,0,.15,0,.22,0l-.11.5-.11-.5Z"/>
      <path class="st21" d="M122.44,204.73c.3,3.18-1.46,4.95-.51,1.12.16-.63-.14-1.42.51-1.12Z"/>
      <rect class="st21" x="126.46" y="248.79" width=".44" height="1.53"/>
      <path class="st7" d="M152.56,207.8v-.51c0,.28,0,.32,0,.51Z"/>
      <path class="st7" d="M188.49,266.72c.15,0,.3,0,.45,0v8.42s-.89.8-.89.8c-.89-.1-1.79.07-2.68,0-.02-.68.02-1.37,0-2.05-.22-8.13.1-7,3.12-7.17Z"/>
      <g>
        <path class="st18" d="M137.17,259.55l15.4-.51c.12.27-.1,6.4,0,7.69.01.17-.02.35,0,.51-2.76.29-5.5-.47-8.26-.51-2.54-.04-5.05.42-7.59.51.05,2.73-.16,5.56.22,8.2l-.22.51c-1.41.1-2.64.1-4.02-.51-.07-.03-.15.02-.22,0v-7.68c2.86-1.62,5.39,1.74,4.69-8.2Z"/>
        <path class="st18" d="M144.31,275.43c1.22.03,2.44,0,3.67-.04.05.02.34,1.91.35,2.09.12,2.22-.09,4.89,0,7.17h-8.26c0-2.99.17-6.41-.22-9.22,1.48-.05,2.98-.04,4.46,0Z"/>
        <path class="st23" d="M136.72,275.94c.02,2.9-.02,5.81,0,8.71.02,2.57.39,5.27,0,8.2h2.77s.13-8.2.13-8.2c.15,0,.3,0,.45,0,0,2.9,0,5.81,0,8.71h-6.81c-.57-1.3-.32-3.8-.33-5.64-.01-1.36.02-2.74,0-4.1-.02-1.19.03-2.4,0-3.59-.02-.61-.2-1.17-.22-1.54-.05-.98.03-2.08,0-3.07,1.38.61,2.61.61,4.02.51Z"/>
        <path class="st23" d="M152.56,267.23c0,.08.36.21.44,1.27.16,2.04-.1,4.78,0,6.93-1.4-.02-2.98-.22-4.36,0-.64.1-.23,1.27-.33,2.05,0-.18-.3-2.06-.35-2.09-1.22.04-2.45.07-3.67.04v-8.71c2.76.04,5.5.8,8.26.51Z"/>
        <path class="st26" d="M157.03,275.43c.05,0,.52.56,1,.56.6,0,2.82-1.42,3.02-.05-.55,1.2-.01,8.23-.22,8.71h-7.37s-.22-3.08-.22-3.08c0-.34,0-.68,0-1.02l.22-.26-.22-.26v-4.61c1.24.04,2.49.03,3.79,0Z"/>
        <path class="st0" d="M152.79,265.69c.6,2.43,3.3-.1,3.96,1.66l.28,8.07c-1.3.03-2.55.04-3.79,0-.07,0-.15,0-.22,0-.11-2.15.15-4.89,0-6.93-.08-1.06-.44-1.19-.44-1.27-.02-.16.01-.35,0-.51.21-.14.21-.59.22-1.02Z"/>
        <path class="st20" d="M137.17,259.55c-.12-1.56.34-.99.77-1.02,4.93-.45,9.91.34,14.85,0-.04,2.37.06,4.8,0,7.17-.01.43,0,.89-.22,1.02-.09-1.29.12-7.42,0-7.69l-15.4.51Z"/>
        <path class="st0" d="M161.04,275.94v9.22s-7.81,0-7.81,0c-.01-1.19.02-2.4,0-3.59l.22,3.08h7.37c.21-.48-.33-7.51.22-8.71Z"/>
        <path class="st6" d="M132.48,275.43h-.22c-.07-2.54.05-5.14,0-7.68h.22v7.68Z"/>
        <path class="st0" d="M153.23,280.55c0-.17,0-.34,0-.51l.22.26-.22.26Z"/>
        <path class="st7" d="M132.93,280.04c.03,1.18-.02,2.4,0,3.59h-.45s0-3.26,0-3.26l.45-.32Z"/>
        <path class="st7" d="M132.7,275.43c.03,1-.05,2.1,0,3.07-.1-.42-.41-1.16-.45-1.54-.04-.43.01-1.04,0-1.54h.22c.07.02.15-.03.22,0Z"/>
        <path class="st22" d="M144.31,266.72v8.71c-1.48-.04-2.98-.05-4.46,0-.96.03-1.94-.02-2.9,0-.39-2.64-.17-5.47-.22-8.2,2.54-.09,5.05-.55,7.59-.51Z"/>
        <path class="st0" d="M139.84,275.43c.39,2.81.23,6.24.22,9.22-.15,0-.3,0-.45,0h-2.9c-.02-2.89.02-5.81,0-8.71l.22-.51c.96-.02,1.94.03,2.9,0Z"/>
        <path class="st26" d="M139.62,284.65l-.13,8.21h-2.77c.39-2.93.02-5.64,0-8.21h2.9Z"/>
      </g>
      <path class="st18" d="M193.18,258.52h7.14s0,8.2,0,8.2h-6.69v7.68h-.22s-.23-7.68-.23-7.68c.02-2.79.19-5.33,0-8.2Z"/>
      <g>
        <path class="st28" d="M96.11,60.77l-.26,36.55-.52.86c-.97-.48-2.26-.87-3.24-.53l3.35-.51c.03-3.67-.05-7.37-.01-11.04.01-1.24.28-2.44.25-3.57-.04-1.62-.77-2.52-.7-4.08.05-1.05.57-1.4.67-2.58.2-2.3-.21-4.63-.2-6.6.02-2.57.4-5.72.2-8.51.15-.02.3.02.45,0Z"/>
        <path class="st28" d="M91.42,183.73c-.15-.02-.3.03-.45,0-.15-3.57.4-6.76,0-10.24l-3.31.58c-.27,2.02.4,8.64-.25,9.95-.14.23-.3.16-.45.22-.11-.67-.42-.49-.67-.51l.91-.8v-10.47s3.89,0,3.89,0c.74,3.07.15,7.7.33,11.27Z"/>
        <path class="st28" d="M112.4,18.77c-.36,2.49-.2,5.51-.48,8.11l-4.65,1.12v8.2l-3.12.51c0-.34-.01-.69,0-1.02h2.68v-7.94c.14-.51.31-.66.56-.77.56-.24,4.17-.1,4.35-.51-.02-1.76-.01-3.48.06-5.24.03-.75.02-2.86.6-2.45Z"/>
        <path class="st11" d="M79.15,155.04h3.79s-.23,9.22-.23,9.22l-4.24-.51,4.02-.51v-7.17h-3.35c-.01-.34,0-.68,0-1.02Z"/>
        <path class="st28" d="M60.18,97.66c.74.1,1.61.95,2.45.51v10.25h4.02v16.39l-.2-.29-.34-14.6-3.89-1.58-.13-8.67c-.33-1.05-2,.06-1.91-2.01Z"/>
        <path class="st11" d="M95.66,192.43c-1.48,0-2.98,0-4.46,0,.97-1.25,2.85-.15,4.02-.51l-.03-6.61c-.92-.74-1.83-.49-2.78-.56-.43-.04-.89.52-.77-1.03,1.21.05,2.39.06,3.58.74.28.44.41,6.63.43,7.97Z"/>
        <path class="st28" d="M104.14,37.21c-.03,2.89.02,5.82,0,8.71l-4.69-.51c.27-1.94,1.15-.51,1.69-.49.9.03,1.85-.32,2.78-.02.16-2.39-.16-4.64-.23-6.91-.04-1.28-.09-1.67.45-.78Z"/>
        <path class="st28" d="M66.87,124.81c.74.24,3.43-.4,3.76.07l.25,9.66c-.15-.03-.3.04-.45,0v-9.23s-3.57-.51-3.57-.51Z"/>
        <path class="st28" d="M91.87,97.66c-.03,3.06.14,6.19-.25,9.17l-3.99.06,3.58-.74c.59-.95-.27-7.62.66-8.49Z"/>
        <path class="st11" d="M55.72,88.95c.15-.02.3,0,.45,0s.3,0,.45,0c.52.03,1.88-.36,2.13.48l.1,7.72-.5-7.05-3.3-.63c.11-.67.42-.48.67-.51Z"/>
        <path class="st11" d="M99.23,57.19c-.36-.66-.26-2.4-.23-3.35.08-2.46.21-5.54.46-7.92-.18,3.36-.08,7.61-.22,11.27Z"/>
        <path class="st11" d="M116.41,16.72c0,.51.01,1.03,0,1.54h-4.02s3.79-.51,3.79-.51v-3.59c.39-.05.23,1.96.22,2.56Z"/>
        <path class="st11" d="M59.96,97.66c-.06,0-.34.85-.67.51v-1.02c.2.1.43.52.67.51Z"/>
        <path class="st9" d="M128.69,54.63c1.19-.02,2.38.02,3.57,0v-7.43c0-4.14,4.33-1.73,5.47-1.75.5,0,.96-.55,1.45-.56v-8.2h31.24l.58,7.74c.86,1.28,1.91-.29,2.64-.06.34.11.61.88,1.12,1.05,1.12.38,2.19-.74,3.26-.3l.02,8.4,3.1,1.34c.63,1.47-.25,5.88.55,7.44h3.68v7.94c.41,1.65,3.13.26,3.35.77-.2,2.44.19,5.15.2,7.38.02,5.36-.49,12.04-.21,17.5.04.75.03,1.32.35,1.77h3.68v9.22h-56.01v-8.2h-4.02l-.22-5.64-3.76-.58.16-10.39-.31-.81h-3.35c-.64,0,.12-6.29.11-7.44,0-1.41-.42-2.62-.45-4.09-.1-4.89-.01-10.19,0-15.12,1.26-.02,2.53.02,3.79,0Z"/>
        <path class="st3" d="M132.7,153.5h3.79v9.22c.96.02,1.94-.02,2.9,0,5.94.15,11.91-.04,17.85,0,1.26,0,2.53-.01,3.79,0,1.44.01,3,.51,4.35.51h5.8c.13,0,1.67-1.09,2.34-.51h8.26c.22,0,.45,0,.67,0h6.47c-.02,4.81-.1,9.9,0,14.58.03,1.65.42,3.54.23,5.4-1.31-.13-2.51.83-3.79,0v18.12c-.01.22-.72.83-.78.83h-3.24v7.94c0,.14-.23,1.2-.38,1.3l-7.43.49v8.2c-2.25-.42-4.29.18-6.47,1.02-.41.16-1.5.82-1.76.45-.42-2.56-.22-5.43-.25-8.14-.1-10.74.07-21.53,0-32.27h-12.5c0,1.51.1,11.12-.35,11.3l-22.75-.06c-.6.78-1.37.02-1.67.03l1.11-1.04c.28-2.04-.89-6.65.02-7.91.35-.49.9-.01,1.07-1.12.56-3.57-.09-12.21.69-14.17.57-1.44,2.67-1.31,3.36-2.66.09-1.62-1.39-.36-1.56-.76,0-2.65,0-5.31,0-7.97,0-1.03.23-2.03.23-2.79Z"/>
        <path class="st21" d="M124.89,54.11c0,.17,0,.34,0,.51-.01,4.93-.11,10.23,0,15.12.03,1.47.45,2.68.45,4.09,0,1.14-.75,7.44-.11,7.44h3.35l.31.81-.16,10.39,3.76.58.22,5.64h4.02v8.2l-.86.07-.37,5.05-.47.9c-1.18-1.06-1.79,1.44-2.09,3.71-.39,2.97-.4,5.67-.45,8.71-.1,6.08,0,12.34,0,18.44,0,3.22.22,6.76.22,9.73,0,.76-.23,1.76-.23,2.79,0,2.66.02,5.32,0,7.97.17.4,1.65-.86,1.56.76-.69,1.35-2.79,1.23-3.36,2.66-.78,1.96-.13,10.61-.69,14.17-.17,1.1-.72.63-1.07,1.12-.91,1.26.26,5.86-.02,7.91l-1.11,1.04c-.99.01-1.9.57-2.9,0v-9.22c-.95-.2-2.98.63-3.68-1.03-.5-1.2-.56-7.83,0-9.21h3.68v-65.57h-3.46c-.9-2.55.23-7.18-.67-9.73h-3.57c-.08,0-.36-.52-.52-.6l.19-16.82c.9.23,2.58.37,3.46,0,.25-.11.45-.18.53-.84l.27-24.75,3.78-.03Z"/>
        <path class="st1" d="M95.21,115.08c3.1.18,6.23.51,9.37.51.24,12.55.34,25.31.22,37.91-.03,2.88-.18,6.15-.22,9.22-.04,3.41.12,6.88-.1,10.28-.42,1.38-2.65.02-3.25-.03-.59-2.82-1.02-6.14-.67-9.21-.23-.81-4.36-.51-5.13-.52-.07,0-.15,0-.22,0l-.1-9.25c-.32-1.05-2.78-.22-3.47-.48-.03-12.54-.34-25.04-.24-37.6.13-1.07,3.22-.86,3.81-.83Z"/>
        <path class="st3" d="M59.06,72.04l7.33-.44c.29.41.57,13.43.26,15.29l4.24-.51-.22,11.27h4.02l-.23,3.82.23,14.11h4.46v8.45l.33.77h3.68l-.46,11.01.24,7.95h-3.57v-9.22c-.8.29-1.57-.23-2.34-.4-.4-.09-1.45.92-1.45-1.39v-7.94c-.28.28-.66-.51-.78-.51h-3.68c-.09-5.72.26-11.21-.01-16.88l-4.02-.76-.08-9.54-3.92-1.5v-8.45c-.16-.48-.23-.65-.5-.67-.97-.06-2.65,1.48-3.51-.35v-14.09Z"/>
        <path class="st5" d="M174.21,18.25c0,.17,0,.34,0,.51,0,2.9,0,5.81,0,8.71-.07,0-.15,0-.22,0h-40.61c-1.3,0-2.61-.57-4.02-.51-.51-2.49-.1-5.93-.22-8.71,15.02-.32,30.06.24,45.08,0Z"/>
        <path class="st10" d="M116.64,105.34l-.23,51.74c-1.12-.81-2.65-.86-3.79,0-.04-16.72.1-33.49,0-50.21-.02-2.46.15-5.94,0-8.2l3.81,1.25c.37.57.2,4.15.21,5.41Z"/>
        <path class="st1" d="M116.86,106.88h3.79c.01,1.95-.03,3.92,0,5.88.12,9.19.18,18.91.23,28.16.01,2.7.13,19.95-.26,20.71l-3.99.06c0-.51,0-1.03,0-1.54,0-.09.23-.81.24-1.73.22-17.15-.2-34.4-.02-51.55Z"/>
        <path class="st15" d="M112.62,36.7c1.34-.04,2.68.01,4.02,0v8.71c0,2.9.01,5.81,0,8.71-1.26.02-2.53-.08-3.79,0-1.5.09-2.96.53-4.46.51,0-.17,0-.34,0-.51.02-2.69.13-5.28.18-7.95,0-.31-.09-.56-.18-.76l.47-8.65c1.25-.14,2.52-.02,3.77-.06Z"/>
        <path class="st3" d="M104.36,53.6s.25.5.54.53c1.15.13,2.32-.13,3.48-.02,0,.17,0,.34,0,.51-.04,5.45.02,10.94,0,16.39l-4.02,1.02-4.02-.51.23-17.93c1.26.06,2.53-.1,3.79,0Z"/>
        <path class="st8" d="M104.36,106.88c-.19,2.94.17,5.95.22,8.71h3.57l.22,36.89c0,.85,0,1.71,0,2.56-.35-3.01-2.48-.97-3.57-1.54.12-12.6.01-25.36-.22-37.91-3.14,0-6.27-.34-9.37-.51v-8.2c3.05.04,6.1-.04,9.15,0Z"/>
        <path class="st9" d="M120.88,192.43c-.04,3.05-.14,6.58-.22,9.73l-4.14-.48.13-9.25h-4.02v-8.71l8.05-.29c.35.56.23,7.5.21,9Z"/>
        <path class="st15" d="M129.13,18.25c.13,2.78-.28,6.22.22,8.71-.04,0-.24.49-.45.51-1.26.12-2.55-.29-3.81.22-.4.64-.17,6.88-.21,8.49,0,.17,0,.34,0,.51h-4.46c.88-5.52.49-12.06.45-17.93,2.67-.29,5.48-.45,8.26-.51Z"/>
        <path class="st27" d="M120.88,18.77c.05,5.87.43,12.41-.45,17.93-1.26,0-2.53,0-3.79,0-1.34.01-2.68-.04-4.02,0v-8.71s4.02-.51,4.02-.51v-8.2c1.37-.95,2.83-.36,4.24-.51Z"/>
        <path class="st8" d="M112.84,54.11c-.36,2.09-.25,4.71-.23,6.95,0,.95.23,1.95.23,2.27,0,2.56-.19,5.46-.22,8.2s.03,5.48,0,8.2c-1.56,0-3.13-.02-4.69,0,.8-1.54.44-6.22.45-8.71.02-5.46-.04-10.94,0-16.39,1.5.01,2.96-.42,4.46-.51Z"/>
        <path class="st5" d="M116.64,106.88c.1,17.75-.08,35.53,0,53.28,0,.51,0,1.03,0,1.54-.07,3.61.32,8.2-.33,11.27h-3.68c0-5.29.01-10.6,0-15.88,1.14-.86,2.67-.81,3.79,0l.23-51.74c0,.51,0,1.02,0,1.54Z"/>
        <path class="st19" d="M109.5,86.9l2.42,1.1.05,7.84-.56.28.32,1.02c-1.05-.2-2.27,0-3.35,0-1.26,0-2.54-.08-3.79,0-.04-3.23.06-6.51,0-9.73,1.3-.12,2.62.15,3.92.02.29-.03.51-.53.54-.53.15-.01.3.02.45,0Z"/>
        <path class="st27" d="M95.44,163.23c.78,0,4.9-.29,5.13.52-.35,3.08.08,6.4.67,9.21-1.93-.18-3.88-.15-5.8,0v-9.74Z"/>
        <path class="st13" d="M104.59,86.9c0,.17,0,.34,0,.51.06,3.23-.04,6.5,0,9.73-.12,0-.44.49-.77.52-1.15.09-2.32-.07-3.47,0,.01-3.58-.02-7.18,0-10.76h4.24Z"/>
        <path class="st8" d="M111.73,97.15c.15.03.3-.02.45,0,.35.32.39.76.45,1.54.15,2.26-.02,5.73,0,8.2h-4.02c-.02-3.25.12-6.55-.22-9.73,1.07,0,2.3-.2,3.35,0Z"/>
        <rect class="st4" x="108.38" y="172.97" width="4.02" height="9.73"/>
        <path class="st24" d="M179.34,31.06h-.45s0,4.61,0,4.61h-4.46l-.22-7.68c0-.17,0-.34,0-.51,1.59.04,3.18-.1,4.77.07.52.4.38,2.48.37,3.52Z"/>
        <path class="st21" d="M82.94,173.99c-.27,1.28.6,9.22-.11,9.22h-3.68v-7.94c0-.27-.36-1.06-.22-1.79.25-.2.49.51.56.51h3.46Z"/>
        <path class="st27" d="M108.38,45.41c.1.2.19.44.18.76-.05,2.67-.16,5.27-.18,7.95-1.15-.11-2.32.15-3.48.02-.29-.03-.51-.53-.54-.53.07-2.7-.21-5.57.25-8.13l3.76-.07Z"/>
        <path class="st17" d="M116.64,54.11c-.01,3.21-.27,6.68-.22,10.25-.67-2.18-2.53-.53-3.57-1.02,0-.32-.23-1.32-.23-2.27-.02-2.24-.13-4.86.23-6.95,1.26-.08,2.53.02,3.79,0Z"/>
        <path class="st27" d="M95.21,163.23c-.48,0-.9.47-1.25.46-.71-.01-1.53-.86-2.32-.46,0-3.24,0-6.5,0-9.74.69.26,3.15-.57,3.47.48l.1,9.25Z"/>
        <path class="st10" d="M124.89,36.7c-.07,2.79-.4,5.75-.22,8.71h-4.02v8.71c-1.34.01-2.68-.02-4.02,0,.01-2.9,0-5.81,0-8.71l4.03-.22c.46-.74.09-6.85.21-8.49h4.02Z"/>
        <path class="st10" d="M104.14,192.43c-.14-2.95.2-5.79.22-8.71h3.79v7.94c-.52.78-2.11,1.28-2.8,1.3-.54.01-1.01-.53-1.21-.53Z"/>
        <path class="st15" d="M104.36,106.88c1.34.02,2.68-.01,4.02,0,0,2.9,0,5.82,0,8.71h-3.79c-.05-2.76-.41-5.77-.22-8.71Z"/>
        <path class="st15" d="M104.81,153.5c1.09.57,3.22-1.48,3.57,1.54,0,2.56,0,5.13,0,7.69h-3.79c.04-3.08.2-6.34.22-9.22Z"/>
        <path class="st21" d="M86.51,163.74l.22,9.23-3.81-.23c-.62-1,.13-6.77.02-8.48l3.57-.52Z"/>
        <path class="st19" d="M112.84,63.34c1.04.49,2.9-1.16,3.57,1.02,0,.07.22.58.23,1.24.05,2.14-.05,4.31,0,6.45l-4.02-.51c.04-2.74.22-5.64.22-8.2Z"/>
        <path class="st3" d="M124.89,54.11c0-2.73,0-5.47,0-8.2h3.79v8.71c-1.26.02-2.53-.02-3.79,0,0-.17,0-.34,0-.51Z"/>
        <path class="st15" d="M108.38,71.02c0,2.49.36,7.16-.45,8.71-1.18.01-2.39-.1-3.57,0-.02-2.55.01-5.13,0-7.68l4.02-1.02Z"/>
        <path class="st10" d="M128.91,27.47l-.47,8.65-3.55.06c.04-1.61-.19-7.84.21-8.49,1.25-.51,2.55-.1,3.81-.22Z"/>
        <rect class="st24" x="182.47" y="44.89" width="3.12" height="9.22"/>
        <path class="st3" d="M104.36,79.73c.02,2.53.19,4.92.22,7.17h-4.24c.01-2.21,0-4.45,0-6.66,1.35,0,2.67-.4,4.02-.51Z"/>
        <polygon class="st24" points="179.34 36.18 182.1 36.26 182.43 37.02 182.24 44.89 179.34 44.89 179.34 36.18"/>
        <path class="st10" d="M173.99,27.47c-13.53-.29-27.08.07-40.61,0h40.61Z"/>
        <path class="st14" d="M116.64,160.16c-.08-17.75.1-35.53,0-53.28h.22c-.18,17.15.23,34.4.02,51.55-.01.92-.24,1.64-.24,1.73Z"/>
        <path class="st20" d="M189.38,123.27c.01.68,0,1.37,0,2.05l-.22.26.22.26c.07,9.23-.14,18.45-.22,27.66h-.22v-14.34c0-1.53,0-3.08,0-4.61,0-2.9-.02-5.82,0-8.71,0-1.19,0-2.39,0-3.58l.44,1.02Z"/>
        <path class="st24" d="M108.38,152.48l-.22-36.89h.22c.04,12.28.03,24.6,0,36.89Z"/>
        <path class="st12" d="M174.21,27.99l.22,7.68h4.46v-4.61s.45,0,.45,0c-.03,1.73-.31,3.37-.22,5.13h-4.91c0-2.73.01-5.47,0-8.2Z"/>
        <path class="st25" d="M109.5,86.9c.96-.11,1.94.08,2.9,0l-.22,10.25c-.15-.02-.3.03-.45,0l-.32-1.02.56-.28-.05-7.84-2.42-1.1Z"/>
        <path class="st25" d="M109.05,86.9s-.25.5-.54.53c-1.3.13-2.62-.14-3.92-.02,0-.17,0-.34,0-.51h4.46Z"/>
        <path class="st28" d="M56.61,88.95c-.15,0-.3,0-.45,0l.33-.51.11.51Z"/>
        <path class="st25" d="M189.38,125.84l-.22-.26.22-.26c0,.17,0,.34,0,.51Z"/>
        <path class="st8" d="M120.43,36.7h.45c-.12,1.64.25,7.75-.21,8.49l-4.03.22v-8.71c1.26,0,2.53,0,3.79,0Z"/>
        <g>
          <path class="st25" d="M188.71,116.61h.44c.28,2.26.19,4.38.23,6.66l-.44-1.02c-.01,1.19,0,2.39,0,3.58-1.13.2-2.22-.41-3.35-.51-.02-.67-.33-.49-.54-.54-2.3-.47-5.22.02-7.6.02-.17,0-1.16-.22-.56.51-.88,0-2.23.52-3.35.51-5.29-.04-10.72-.52-16.07-.51h-17.41c-1.95.05-5.53,1.15-7.14,0v-8.2s55.79-.51,55.79-.51Z"/>
          <path class="st8" d="M188.94,153.5h.22c-.03,2.93-.21,6.05-.22,9.22h-3.57v-9.22c1.19.04,2.38-.03,3.57,0Z"/>
          <path class="st10" d="M188.71,116.61l-55.79.51v8.2c-.11-.08-.31.06-.45,0,.05-3.04.05-5.73.45-8.71h55.79Z"/>
          <path class="st0" d="M142.3,152.99c1.81-.06,3.93-.05,5.8,0,1.33.03,4.01.11,5.26.47.43.12.21.98.64,1.11,1.55.44,2.04-.95,3.25-1.07v9.22c-5.95-.04-11.91.15-17.85,0l.91-.8v-8.42c.74,0,1.36-.49,1.99-.51Z"/>
          <path class="st21" d="M165.28,153.5v1.02s.33,0,.33,0l.11-1.03h1.12v1.02s1.42.01,1.42.01l.14-1.03c.45,0,.89.01,1.34,0,.15.81.97.81,1.12,0,.64-.02,1.39.16,2.01,0l.22,4.62h.45c0,1.53,0,3.07,0,4.61-.67-.58-2.22.51-2.34.51h-5.8c-1.35,0-2.92-.5-4.35-.51.04-2.72-.05-5.48,0-8.2,1.19-.38,2.85.98,3.79-1.02h.45ZM172.42,158.63c-.51-1.17-1.41,2.11-.55,2.56.55.28.7-2.22.55-2.56Z"/>
          <path class="st26" d="M136.72,143.77c-.01,3.24,0,6.5,0,9.74,1.11-.01,2.24,0,3.35,0,.07,0,.15,0,.22,0v8.42s-.89.8-.89.8c-.96-.02-1.94.02-2.9,0v-9.22h-3.79c0-2.98-.22-6.52-.22-9.73,1.41.07,2.83-.1,4.24,0Z"/>
          <path class="st0" d="M181.57,153.5c.22,2.99-.32,6.32.22,9.22h-8.26c0-1.53,0-3.08,0-4.61,0-1.36,0-2.74,0-4.1,2.69.42,5.37-.37,8.03-.51Z"/>
          <path class="st23" d="M161.04,152.99c0,.17,0,.34,0,.51,0,.34,0,.68,0,1.02-.05,2.72.04,5.48,0,8.2-1.26-.01-2.53,0-3.79,0v-9.22c1.14-.1,1.78-.02,2.9-.51.26-.11.61.08.89,0Z"/>
          <path class="st22" d="M185.37,153.5v3.59c-.93-.35-.23,4.11-.44,4.61l-1.12,1.02h-.67l-.11-1.03h-.56s0,1.03,0,1.03c-.22,0-.45,0-.67,0-.55-2.91,0-6.23-.22-9.22.06,0,.17-.51.22-.51.07,0,.15,0,.22,0,.83-.04,2.29.48,3.35.51Z"/>
          <path class="st0" d="M185.37,157.09v2.05l-.22.26.22.26v1.54l-.22,1.54h-1.34l1.12-1.02c.22-.51-.48-4.96.44-4.61Z"/>
          <polygon class="st0" points="182.47 162.72 182.47 161.7 183.02 161.69 183.14 162.72 182.47 162.72"/>
          <polygon class="st22" points="185.37 162.72 185.14 162.72 185.37 161.18 185.37 162.72"/>
          <path class="st0" d="M132.93,125.32c1.62,1.15,5.19.05,7.14,0l.22,9.22c-.1.03-.2.27-.22.51-1.11.02-2.24-.01-3.35,0,0,2.9.01,5.81,0,8.71-1.41-.1-2.83.07-4.24,0,0-6.1-.1-12.36,0-18.44.14.06.33-.08.45,0Z"/>
          <path class="st7" d="M185.59,125.32c0,.17,0,.35,0,.51.16,2.66-.11,5.96,0,8.71h-4.02c.2,5.54-.27,12,0,17.42.02.49-.08,1.05.22,1.02-.05,0-.17.51-.22.51-2.67.14-5.35.93-8.03.51,0,1.36,0,2.74,0,4.1h-.45s-.22-4.61-.22-4.61c.11-.03.22.04.33,0l.12-.51c0-6.14.01-12.3,0-18.44.51-2.49.1-5.93.22-8.71,1.12,0,2.47-.52,3.35-.51,2.89.02,5.82-.25,8.7,0Z"/>
          <path class="st0" d="M173.54,125.84c-.13,2.78.28,6.22-.22,8.71,0-1,.08-8.71-.11-8.71-.21,2.85-.11,5.83-.11,8.71h-15.4c-.21-.48.33-7.51-.22-8.71-.01-.17,0-.34,0-.51,5.35,0,10.78.47,16.07.51Z"/>
          <path class="st2" d="M188.94,125.84c-.02,2.89,0,5.81,0,8.71-1.04.09-2.09-.12-3.12,0,0-2.46-.02-4.93.02-7.39.01-.88.55-1.49-.24-1.32,0-.17,0-.34,0-.51,1.12.1,2.21.71,3.35.51Z"/>
          <path class="st10" d="M157.47,125.32c-5.8,0-11.61-.16-17.41,0h17.41Z"/>
          <path class="st10" d="M185.59,125.32c-2.88-.25-5.82.02-8.7,0-.6-.73.38-.51.56-.51,2.38,0,5.3-.5,7.6-.02.22.04.52-.13.54.54Z"/>
          <path class="st2" d="M188.94,153.5c-1.19-.03-2.38.04-3.57,0-1.05-.03-2.52-.55-3.35-.51-.18-2.93-.23-5.75-.22-8.71l6.31-1.02.83-4.11v14.34Z"/>
          <polygon class="st22" points="185.37 159.65 185.15 159.39 185.37 159.14 185.37 159.65"/>
          <path class="st18" d="M188.94,134.55c0,1.53,0,3.08,0,4.61l-.83,4.11-6.31,1.02c0-3.12.14-6.13.22-9.22,1-.1,2.02.15,3.03,0,.33-.05.64-.5.77-.52,1.03-.12,2.09.09,3.12,0Z"/>
          <path class="st7" d="M157.47,125.32c0,.17-.01.35,0,.51.33,5.29-.84,12.95,0,18.44l-.22,8.71h2.9c-1.13.49-1.77.41-2.9.51-1.21.11-1.7,1.51-3.25,1.07-.43-.12-.21-.98-.64-1.11-1.25-.36-3.93-.44-5.26-.47.09-2.58.19-5.09.22-7.68.04-3.57-.03-7.18,0-10.76-2.48.6-5.64-.79-8.03,0l-.22-9.22c5.79-.16,11.61,0,17.41,0Z"/>
          <path class="st18" d="M140.07,135.06c2.67-.05,5.36.04,8.03,0,.03,2.89-.04,5.82,0,8.71-2,.04-3.75-.62-5.58,1.54-.08,1.62.73.87,1.13,2.27.34,1.18.19,2.11-.05,3.28-.74.12-1.42-.23-1.3,2.13-.64.02-1.25.51-2.01.51-.07,0-.15,0-.22,0-.46-3.3,1.06-3.11,1.34-4.36.24-1.11-.51-.48-.69-1.07-.21-.69-.36-3.55-.45-3.72-.3-.57-2.95-.54-3.54-.58,0-2.9,0-5.81,0-8.71,1.11-.01,2.24.02,3.35,0Z"/>
          <path class="st2" d="M148.1,143.77c0,.56-.07,1.29.22,1.54-.03,2.6-.13,5.1-.22,7.68-1.87-.05-3.99-.06-5.8,0-.11-2.36.57-2.01,1.3-2.13.25-1.18.39-2.11.05-3.28-.4-1.4-1.21-.64-1.13-2.27,1.83-2.17,3.58-1.5,5.58-1.54ZM147.77,150.94v.51c.14-.17.14-.34,0-.51Z"/>
          <path class="st2" d="M173.09,143.77c0,2.96-.19,6.56.22,9.22l-.12.51c-.11.04-.22-.02-.33,0-.62.16-1.36-.02-2.01,0-.37.01-.74,0-1.12,0-.45.01-.89,0-1.34,0-.52,0-1.04,0-1.56,0h-5.8c0-.17,0-.34,0-.51,0-.29.21-1.01.22-1.77.06-2.3-.04-4.64,0-6.94,2.78,0,5.64.21,8.37.05,1.12-.07,2.28-.99,3.46-.56Z"/>
          <path class="st7" d="M164.84,153.5c-.95,2-2.61.65-3.79,1.02,0-.34,0-.68,0-1.02h3.79Z"/>
          <path class="st3" d="M172.42,158.63c.14.33,0,2.84-.55,2.56-.86-.44.04-3.73.55-2.56Z"/>
          <path class="st7" d="M168.41,153.5l-.14,1.03h-1.42s0-1.03,0-1.03c.52,0,1.04,0,1.56,0Z"/>
          <path class="st7" d="M170.86,153.5c-.15.81-.97.81-1.12,0,.37,0,.74.01,1.12,0Z"/>
          <polygon class="st7" points="165.73 153.5 165.62 154.53 165.28 154.52 165.28 153.5 165.73 153.5"/>
          <path class="st2" d="M136.72,143.77c.59.04,3.24.01,3.54.58.09.17.24,3.04.45,3.72.18.58.93-.04.69,1.07-.28,1.26-1.8,1.06-1.34,4.36-1.11.01-2.24,0-3.35,0,0-3.24,0-6.5,0-9.74Z"/>
          <path class="st0" d="M161.27,144.28c-.04,2.3.06,4.64,0,6.94-.02.75-.22,1.48-.22,1.77-.28.08-.63-.11-.89,0h-2.9s.22-8.71.22-8.71h3.79Z"/>
          <path class="st20" d="M185.59,125.84c.79-.18.25.43.24,1.32-.04,2.46-.01,4.93-.02,7.39-.13.02-.44.47-.77.52-1,.14-2.02-.1-3.03,0-.09,3.1-.21,6.11-.22,9.22,0,2.96.04,5.78.22,8.71-.07,0-.15,0-.22,0l-.22-1.02c-.27-5.42.2-11.88,0-17.42h4.02c-.11-2.75.16-6.05,0-8.71Z"/>
          <path class="st28" d="M140.29,134.55c2.39-.8,5.55.59,8.03,0-.03,3.58.04,7.19,0,10.76-.29-.25-.21-.97-.22-1.54-.04-2.89.03-5.82,0-8.71-2.67.04-5.36-.05-8.03,0,.02-.25.12-.48.22-.51Z"/>
          <path class="st20" d="M173.32,134.55c.01,6.14,0,12.3,0,18.44-.41-2.66-.22-6.26-.22-9.22s0-6.15,0-9.22c0-2.88-.1-5.87.11-8.71.19,0,.11,7.72.11,8.71Z"/>
          <path class="st2" d="M181.8,152.99c-.31.03-.2-.54-.22-1.02l.22,1.02Z"/>
          <path class="st18" d="M157.47,125.84c.55,1.2.01,8.23.22,8.71h15.4c0,3.06,0,6.15,0,9.22-1.18-.43-2.34.49-3.46.56-2.72.16-5.58-.05-8.37-.05h-3.79c-.84-5.5.33-13.15,0-18.44Z"/>
          <path class="st0" d="M147.77,150.94c.14.17.14.34,0,.51v-.51Z"/>
        </g>
      </g>
    </g>
  </g>
  <text/>
</svg>